<?xml version="1.0" encoding="utf-8" standalone="no"?>
<!DOCTYPE svg PUBLIC "-//W3C//DTD SVG 1.1//EN"
  "http://www.w3.org/Graphics/SVG/1.1/DTD/svg11.dtd">
<!-- Created with matplotlib (http://matplotlib.org/) -->
<svg height="417pt" version="1.1" viewBox="0 0 536 417" width="536pt" xmlns="http://www.w3.org/2000/svg" xmlns:xlink="http://www.w3.org/1999/xlink">
 <defs>
  <style type="text/css">
*{stroke-linecap:butt;stroke-linejoin:round;stroke-miterlimit:100000;}
  </style>
 </defs>
 <g id="figure_1">
  <g id="patch_1">
   <path d="M 0 417.390625 
L 536.871875 417.390625 
L 536.871875 0 
L 0 0 
z
" style="fill:#ffffff;"/>
  </g>
  <g id="axes_1">
   <g id="patch_2">
    <path d="M 61.00625 362.478125 
L 507.40625 362.478125 
L 507.40625 16.878125 
L 61.00625 16.878125 
z
" style="fill:#ffffff;"/>
   </g>
   <g id="patch_3">
    <path clip-path="url(#p4ef7c01ce5)" d="M 61.00625 362.478125 
L 72.16625 362.478125 
L 72.16625 103.278125 
L 61.00625 103.278125 
z
" style="fill:#0000ff;opacity:0.5;stroke:#000000;stroke-linejoin:miter;"/>
   </g>
   <g id="patch_4">
    <path clip-path="url(#p4ef7c01ce5)" d="M 72.16625 362.478125 
L 83.32625 362.478125 
L 83.32625 74.478125 
L 72.16625 74.478125 
z
" style="fill:#0000ff;opacity:0.5;stroke:#000000;stroke-linejoin:miter;"/>
   </g>
   <g id="patch_5">
    <path clip-path="url(#p4ef7c01ce5)" d="M 83.32625 362.478125 
L 94.48625 362.478125 
L 94.48625 97.518125 
L 83.32625 97.518125 
z
" style="fill:#0000ff;opacity:0.5;stroke:#000000;stroke-linejoin:miter;"/>
   </g>
   <g id="patch_6">
    <path clip-path="url(#p4ef7c01ce5)" d="M 94.48625 362.478125 
L 105.64625 362.478125 
L 105.64625 126.318125 
L 94.48625 126.318125 
z
" style="fill:#0000ff;opacity:0.5;stroke:#000000;stroke-linejoin:miter;"/>
   </g>
   <g id="patch_7">
    <path clip-path="url(#p4ef7c01ce5)" d="M 105.64625 362.478125 
L 116.80625 362.478125 
L 116.80625 74.478125 
L 105.64625 74.478125 
z
" style="fill:#0000ff;opacity:0.5;stroke:#000000;stroke-linejoin:miter;"/>
   </g>
   <g id="patch_8">
    <path clip-path="url(#p4ef7c01ce5)" d="M 116.80625 362.478125 
L 127.96625 362.478125 
L 127.96625 85.998125 
L 116.80625 85.998125 
z
" style="fill:#0000ff;opacity:0.5;stroke:#000000;stroke-linejoin:miter;"/>
   </g>
   <g id="patch_9">
    <path clip-path="url(#p4ef7c01ce5)" d="M 127.96625 362.478125 
L 139.12625 362.478125 
L 139.12625 126.318125 
L 127.96625 126.318125 
z
" style="fill:#0000ff;opacity:0.5;stroke:#000000;stroke-linejoin:miter;"/>
   </g>
   <g id="patch_10">
    <path clip-path="url(#p4ef7c01ce5)" d="M 139.12625 362.478125 
L 150.28625 362.478125 
L 150.28625 114.798125 
L 139.12625 114.798125 
z
" style="fill:#0000ff;opacity:0.5;stroke:#000000;stroke-linejoin:miter;"/>
   </g>
   <g id="patch_11">
    <path clip-path="url(#p4ef7c01ce5)" d="M 150.28625 362.478125 
L 161.44625 362.478125 
L 161.44625 109.038125 
L 150.28625 109.038125 
z
" style="fill:#0000ff;opacity:0.5;stroke:#000000;stroke-linejoin:miter;"/>
   </g>
   <g id="patch_12">
    <path clip-path="url(#p4ef7c01ce5)" d="M 161.44625 362.478125 
L 172.60625 362.478125 
L 172.60625 183.918125 
L 161.44625 183.918125 
z
" style="fill:#0000ff;opacity:0.5;stroke:#000000;stroke-linejoin:miter;"/>
   </g>
   <g id="patch_13">
    <path clip-path="url(#p4ef7c01ce5)" d="M 172.60625 362.478125 
L 183.76625 362.478125 
L 183.76625 126.318125 
L 172.60625 126.318125 
z
" style="fill:#0000ff;opacity:0.5;stroke:#000000;stroke-linejoin:miter;"/>
   </g>
   <g id="patch_14">
    <path clip-path="url(#p4ef7c01ce5)" d="M 183.76625 362.478125 
L 194.92625 362.478125 
L 194.92625 160.878125 
L 183.76625 160.878125 
z
" style="fill:#0000ff;opacity:0.5;stroke:#000000;stroke-linejoin:miter;"/>
   </g>
   <g id="patch_15">
    <path clip-path="url(#p4ef7c01ce5)" d="M 194.92625 362.478125 
L 206.08625 362.478125 
L 206.08625 189.678125 
L 194.92625 189.678125 
z
" style="fill:#0000ff;opacity:0.5;stroke:#000000;stroke-linejoin:miter;"/>
   </g>
   <g id="patch_16">
    <path clip-path="url(#p4ef7c01ce5)" d="M 206.08625 362.478125 
L 217.24625 362.478125 
L 217.24625 160.878125 
L 206.08625 160.878125 
z
" style="fill:#0000ff;opacity:0.5;stroke:#000000;stroke-linejoin:miter;"/>
   </g>
   <g id="patch_17">
    <path clip-path="url(#p4ef7c01ce5)" d="M 217.24625 362.478125 
L 228.40625 362.478125 
L 228.40625 258.798125 
L 217.24625 258.798125 
z
" style="fill:#0000ff;opacity:0.5;stroke:#000000;stroke-linejoin:miter;"/>
   </g>
   <g id="patch_18">
    <path clip-path="url(#p4ef7c01ce5)" d="M 228.40625 362.478125 
L 239.56625 362.478125 
L 239.56625 160.878125 
L 228.40625 160.878125 
z
" style="fill:#0000ff;opacity:0.5;stroke:#000000;stroke-linejoin:miter;"/>
   </g>
   <g id="patch_19">
    <path clip-path="url(#p4ef7c01ce5)" d="M 239.56625 362.478125 
L 250.72625 362.478125 
L 250.72625 218.478125 
L 239.56625 218.478125 
z
" style="fill:#0000ff;opacity:0.5;stroke:#000000;stroke-linejoin:miter;"/>
   </g>
   <g id="patch_20">
    <path clip-path="url(#p4ef7c01ce5)" d="M 250.72625 362.478125 
L 261.88625 362.478125 
L 261.88625 241.518125 
L 250.72625 241.518125 
z
" style="fill:#0000ff;opacity:0.5;stroke:#000000;stroke-linejoin:miter;"/>
   </g>
   <g id="patch_21">
    <path clip-path="url(#p4ef7c01ce5)" d="M 261.88625 362.478125 
L 273.04625 362.478125 
L 273.04625 229.998125 
L 261.88625 229.998125 
z
" style="fill:#0000ff;opacity:0.5;stroke:#000000;stroke-linejoin:miter;"/>
   </g>
   <g id="patch_22">
    <path clip-path="url(#p4ef7c01ce5)" d="M 273.04625 362.478125 
L 284.20625 362.478125 
L 284.20625 218.478125 
L 273.04625 218.478125 
z
" style="fill:#0000ff;opacity:0.5;stroke:#000000;stroke-linejoin:miter;"/>
   </g>
   <g id="patch_23">
    <path clip-path="url(#p4ef7c01ce5)" d="M 284.20625 362.478125 
L 295.36625 362.478125 
L 295.36625 264.558125 
L 284.20625 264.558125 
z
" style="fill:#0000ff;opacity:0.5;stroke:#000000;stroke-linejoin:miter;"/>
   </g>
   <g id="patch_24">
    <path clip-path="url(#p4ef7c01ce5)" d="M 295.36625 362.478125 
L 306.52625 362.478125 
L 306.52625 270.318125 
L 295.36625 270.318125 
z
" style="fill:#0000ff;opacity:0.5;stroke:#000000;stroke-linejoin:miter;"/>
   </g>
   <g id="patch_25">
    <path clip-path="url(#p4ef7c01ce5)" d="M 306.52625 362.478125 
L 317.68625 362.478125 
L 317.68625 229.998125 
L 306.52625 229.998125 
z
" style="fill:#0000ff;opacity:0.5;stroke:#000000;stroke-linejoin:miter;"/>
   </g>
   <g id="patch_26">
    <path clip-path="url(#p4ef7c01ce5)" d="M 317.68625 362.478125 
L 328.84625 362.478125 
L 328.84625 253.038125 
L 317.68625 253.038125 
z
" style="fill:#0000ff;opacity:0.5;stroke:#000000;stroke-linejoin:miter;"/>
   </g>
   <g id="patch_27">
    <path clip-path="url(#p4ef7c01ce5)" d="M 328.84625 362.478125 
L 340.00625 362.478125 
L 340.00625 247.278125 
L 328.84625 247.278125 
z
" style="fill:#0000ff;opacity:0.5;stroke:#000000;stroke-linejoin:miter;"/>
   </g>
   <g id="patch_28">
    <path clip-path="url(#p4ef7c01ce5)" d="M 340.00625 362.478125 
L 351.16625 362.478125 
L 351.16625 287.598125 
L 340.00625 287.598125 
z
" style="fill:#0000ff;opacity:0.5;stroke:#000000;stroke-linejoin:miter;"/>
   </g>
   <g id="patch_29">
    <path clip-path="url(#p4ef7c01ce5)" d="M 351.16625 362.478125 
L 362.32625 362.478125 
L 362.32625 270.318125 
L 351.16625 270.318125 
z
" style="fill:#0000ff;opacity:0.5;stroke:#000000;stroke-linejoin:miter;"/>
   </g>
   <g id="patch_30">
    <path clip-path="url(#p4ef7c01ce5)" d="M 362.32625 362.478125 
L 373.48625 362.478125 
L 373.48625 281.838125 
L 362.32625 281.838125 
z
" style="fill:#0000ff;opacity:0.5;stroke:#000000;stroke-linejoin:miter;"/>
   </g>
   <g id="patch_31">
    <path clip-path="url(#p4ef7c01ce5)" d="M 373.48625 362.478125 
L 384.64625 362.478125 
L 384.64625 281.838125 
L 373.48625 281.838125 
z
" style="fill:#0000ff;opacity:0.5;stroke:#000000;stroke-linejoin:miter;"/>
   </g>
   <g id="patch_32">
    <path clip-path="url(#p4ef7c01ce5)" d="M 384.64625 362.478125 
L 395.80625 362.478125 
L 395.80625 247.278125 
L 384.64625 247.278125 
z
" style="fill:#0000ff;opacity:0.5;stroke:#000000;stroke-linejoin:miter;"/>
   </g>
   <g id="patch_33">
    <path clip-path="url(#p4ef7c01ce5)" d="M 395.80625 362.478125 
L 406.96625 362.478125 
L 406.96625 299.118125 
L 395.80625 299.118125 
z
" style="fill:#0000ff;opacity:0.5;stroke:#000000;stroke-linejoin:miter;"/>
   </g>
   <g id="patch_34">
    <path clip-path="url(#p4ef7c01ce5)" d="M 406.96625 362.478125 
L 418.12625 362.478125 
L 418.12625 310.638125 
L 406.96625 310.638125 
z
" style="fill:#0000ff;opacity:0.5;stroke:#000000;stroke-linejoin:miter;"/>
   </g>
   <g id="patch_35">
    <path clip-path="url(#p4ef7c01ce5)" d="M 418.12625 362.478125 
L 429.28625 362.478125 
L 429.28625 281.838125 
L 418.12625 281.838125 
z
" style="fill:#0000ff;opacity:0.5;stroke:#000000;stroke-linejoin:miter;"/>
   </g>
   <g id="patch_36">
    <path clip-path="url(#p4ef7c01ce5)" d="M 429.28625 362.478125 
L 440.44625 362.478125 
L 440.44625 327.918125 
L 429.28625 327.918125 
z
" style="fill:#0000ff;opacity:0.5;stroke:#000000;stroke-linejoin:miter;"/>
   </g>
   <g id="patch_37">
    <path clip-path="url(#p4ef7c01ce5)" d="M 440.44625 362.478125 
L 451.60625 362.478125 
L 451.60625 339.438125 
L 440.44625 339.438125 
z
" style="fill:#0000ff;opacity:0.5;stroke:#000000;stroke-linejoin:miter;"/>
   </g>
   <g id="patch_38">
    <path clip-path="url(#p4ef7c01ce5)" d="M 451.60625 362.478125 
L 462.76625 362.478125 
L 462.76625 322.158125 
L 451.60625 322.158125 
z
" style="fill:#0000ff;opacity:0.5;stroke:#000000;stroke-linejoin:miter;"/>
   </g>
   <g id="patch_39">
    <path clip-path="url(#p4ef7c01ce5)" d="M 462.76625 362.478125 
L 473.92625 362.478125 
L 473.92625 356.718125 
L 462.76625 356.718125 
z
" style="fill:#0000ff;opacity:0.5;stroke:#000000;stroke-linejoin:miter;"/>
   </g>
   <g id="patch_40">
    <path clip-path="url(#p4ef7c01ce5)" d="M 473.92625 362.478125 
L 485.08625 362.478125 
L 485.08625 356.718125 
L 473.92625 356.718125 
z
" style="fill:#0000ff;opacity:0.5;stroke:#000000;stroke-linejoin:miter;"/>
   </g>
   <g id="patch_41">
    <path clip-path="url(#p4ef7c01ce5)" d="M 485.08625 362.478125 
L 496.24625 362.478125 
L 496.24625 362.478125 
L 485.08625 362.478125 
z
" style="fill:#0000ff;opacity:0.5;stroke:#000000;stroke-linejoin:miter;"/>
   </g>
   <g id="patch_42">
    <path clip-path="url(#p4ef7c01ce5)" d="M 496.24625 362.478125 
L 507.40625 362.478125 
L 507.40625 362.478125 
L 496.24625 362.478125 
z
" style="fill:#0000ff;opacity:0.5;stroke:#000000;stroke-linejoin:miter;"/>
   </g>
   <g id="LineCollection_1">
    <path clip-path="url(#p4ef7c01ce5)" d="M 66.58625 141.91738 
L 66.58625 64.63887 
" style="fill:none;stroke:#0000ff;"/>
    <path clip-path="url(#p4ef7c01ce5)" d="M 77.74625 115.207476 
L 77.74625 33.748774 
" style="fill:none;stroke:#0000ff;"/>
    <path clip-path="url(#p4ef7c01ce5)" d="M 88.90625 136.584346 
L 88.90625 58.451904 
" style="fill:none;stroke:#0000ff;"/>
    <path clip-path="url(#p4ef7c01ce5)" d="M 100.06625 163.200121 
L 100.06625 89.436129 
" style="fill:none;stroke:#0000ff;"/>
    <path clip-path="url(#p4ef7c01ce5)" d="M 111.22625 115.207476 
L 111.22625 33.748774 
" style="fill:none;stroke:#0000ff;"/>
    <path clip-path="url(#p4ef7c01ce5)" d="M 122.38625 125.904576 
L 122.38625 46.091674 
" style="fill:none;stroke:#0000ff;"/>
    <path clip-path="url(#p4ef7c01ce5)" d="M 133.54625 163.200121 
L 133.54625 89.436129 
" style="fill:none;stroke:#0000ff;"/>
    <path clip-path="url(#p4ef7c01ce5)" d="M 144.70625 152.568971 
L 144.70625 77.027279 
" style="fill:none;stroke:#0000ff;"/>
    <path clip-path="url(#p4ef7c01ce5)" d="M 155.86625 147.245643 
L 155.86625 70.830607 
" style="fill:none;stroke:#0000ff;"/>
    <path clip-path="url(#p4ef7c01ce5)" d="M 167.02625 215.988448 
L 167.02625 151.847802 
" style="fill:none;stroke:#0000ff;"/>
    <path clip-path="url(#p4ef7c01ce5)" d="M 178.18625 163.200121 
L 178.18625 89.436129 
" style="fill:none;stroke:#0000ff;"/>
    <path clip-path="url(#p4ef7c01ce5)" d="M 189.34625 194.954745 
L 189.34625 126.801505 
" style="fill:none;stroke:#0000ff;"/>
    <path clip-path="url(#p4ef7c01ce5)" d="M 200.50625 221.226944 
L 200.50625 158.129306 
" style="fill:none;stroke:#0000ff;"/>
    <path clip-path="url(#p4ef7c01ce5)" d="M 211.66625 194.954745 
L 211.66625 126.801505 
" style="fill:none;stroke:#0000ff;"/>
    <path clip-path="url(#p4ef7c01ce5)" d="M 222.82625 283.235735 
L 222.82625 234.360515 
" style="fill:none;stroke:#0000ff;"/>
    <path clip-path="url(#p4ef7c01ce5)" d="M 233.98625 194.954745 
L 233.98625 126.801505 
" style="fill:none;stroke:#0000ff;"/>
    <path clip-path="url(#p4ef7c01ce5)" d="M 245.14625 247.278125 
L 245.14625 189.678125 
" style="fill:none;stroke:#0000ff;"/>
    <path clip-path="url(#p4ef7c01ce5)" d="M 256.30625 267.913761 
L 256.30625 215.122489 
" style="fill:none;stroke:#0000ff;"/>
    <path clip-path="url(#p4ef7c01ce5)" d="M 267.46625 257.622115 
L 267.46625 202.374135 
" style="fill:none;stroke:#0000ff;"/>
    <path clip-path="url(#p4ef7c01ce5)" d="M 278.62625 247.278125 
L 278.62625 189.678125 
" style="fill:none;stroke:#0000ff;"/>
    <path clip-path="url(#p4ef7c01ce5)" d="M 289.78625 288.307213 
L 289.78625 240.809037 
" style="fill:none;stroke:#0000ff;"/>
    <path clip-path="url(#p4ef7c01ce5)" d="M 300.94625 293.358125 
L 300.94625 247.278125 
" style="fill:none;stroke:#0000ff;"/>
    <path clip-path="url(#p4ef7c01ce5)" d="M 312.10625 257.622115 
L 312.10625 202.374135 
" style="fill:none;stroke:#0000ff;"/>
    <path clip-path="url(#p4ef7c01ce5)" d="M 323.26625 278.145383 
L 323.26625 227.930867 
" style="fill:none;stroke:#0000ff;"/>
    <path clip-path="url(#p4ef7c01ce5)" d="M 334.42625 273.037628 
L 334.42625 221.518622 
" style="fill:none;stroke:#0000ff;"/>
    <path clip-path="url(#p4ef7c01ce5)" d="M 345.58625 308.3661 
L 345.58625 266.83015 
" style="fill:none;stroke:#0000ff;"/>
    <path clip-path="url(#p4ef7c01ce5)" d="M 356.74625 293.358125 
L 356.74625 247.278125 
" style="fill:none;stroke:#0000ff;"/>
    <path clip-path="url(#p4ef7c01ce5)" d="M 367.90625 303.390072 
L 367.90625 260.286178 
" style="fill:none;stroke:#0000ff;"/>
    <path clip-path="url(#p4ef7c01ce5)" d="M 379.06625 303.390072 
L 379.06625 260.286178 
" style="fill:none;stroke:#0000ff;"/>
    <path clip-path="url(#p4ef7c01ce5)" d="M 390.22625 273.037628 
L 390.22625 221.518622 
" style="fill:none;stroke:#0000ff;"/>
    <path clip-path="url(#p4ef7c01ce5)" d="M 401.38625 318.221884 
L 401.38625 280.014366 
" style="fill:none;stroke:#0000ff;"/>
    <path clip-path="url(#p4ef7c01ce5)" d="M 412.54625 327.918125 
L 412.54625 293.358125 
" style="fill:none;stroke:#0000ff;"/>
    <path clip-path="url(#p4ef7c01ce5)" d="M 423.70625 303.390072 
L 423.70625 260.286178 
" style="fill:none;stroke:#0000ff;"/>
    <path clip-path="url(#p4ef7c01ce5)" d="M 434.86625 342.027186 
L 434.86625 313.809064 
" style="fill:none;stroke:#0000ff;"/>
    <path clip-path="url(#p4ef7c01ce5)" d="M 446.02625 350.958125 
L 446.02625 327.918125 
" style="fill:none;stroke:#0000ff;"/>
    <path clip-path="url(#p4ef7c01ce5)" d="M 457.18625 337.397653 
L 457.18625 306.918597 
" style="fill:none;stroke:#0000ff;"/>
    <path clip-path="url(#p4ef7c01ce5)" d="M 468.34625 362.478125 
L 468.34625 350.958125 
" style="fill:none;stroke:#0000ff;"/>
    <path clip-path="url(#p4ef7c01ce5)" d="M 479.50625 362.478125 
L 479.50625 350.958125 
" style="fill:none;stroke:#0000ff;"/>
    <path clip-path="url(#p4ef7c01ce5)" d="M 490.66625 362.478125 
L 490.66625 362.478125 
" style="fill:none;stroke:#0000ff;"/>
    <path clip-path="url(#p4ef7c01ce5)" d="M 501.82625 362.478125 
L 501.82625 362.478125 
" style="fill:none;stroke:#0000ff;"/>
   </g>
   <g id="line2d_1">
    <defs>
     <path d="M 3 0 
L -3 -0 
" id="medf01c750e" style="stroke:#0000ff;stroke-width:0.5;"/>
    </defs>
    <g clip-path="url(#p4ef7c01ce5)">
     <use style="fill:#0000ff;stroke:#0000ff;stroke-width:0.5;" x="66.58625" xlink:href="#medf01c750e" y="141.917379651"/>
     <use style="fill:#0000ff;stroke:#0000ff;stroke-width:0.5;" x="77.74625" xlink:href="#medf01c750e" y="115.207475596"/>
     <use style="fill:#0000ff;stroke:#0000ff;stroke-width:0.5;" x="88.90625" xlink:href="#medf01c750e" y="136.584345703"/>
     <use style="fill:#0000ff;stroke:#0000ff;stroke-width:0.5;" x="100.06625" xlink:href="#medf01c750e" y="163.200120608"/>
     <use style="fill:#0000ff;stroke:#0000ff;stroke-width:0.5;" x="111.22625" xlink:href="#medf01c750e" y="115.207475596"/>
     <use style="fill:#0000ff;stroke:#0000ff;stroke-width:0.5;" x="122.38625" xlink:href="#medf01c750e" y="125.904575606"/>
     <use style="fill:#0000ff;stroke:#0000ff;stroke-width:0.5;" x="133.54625" xlink:href="#medf01c750e" y="163.200120608"/>
     <use style="fill:#0000ff;stroke:#0000ff;stroke-width:0.5;" x="144.70625" xlink:href="#medf01c750e" y="152.5689709"/>
     <use style="fill:#0000ff;stroke:#0000ff;stroke-width:0.5;" x="155.86625" xlink:href="#medf01c750e" y="147.245642585"/>
     <use style="fill:#0000ff;stroke:#0000ff;stroke-width:0.5;" x="167.02625" xlink:href="#medf01c750e" y="215.98844773"/>
     <use style="fill:#0000ff;stroke:#0000ff;stroke-width:0.5;" x="178.18625" xlink:href="#medf01c750e" y="163.200120608"/>
     <use style="fill:#0000ff;stroke:#0000ff;stroke-width:0.5;" x="189.34625" xlink:href="#medf01c750e" y="194.954744551"/>
     <use style="fill:#0000ff;stroke:#0000ff;stroke-width:0.5;" x="200.50625" xlink:href="#medf01c750e" y="221.226944312"/>
     <use style="fill:#0000ff;stroke:#0000ff;stroke-width:0.5;" x="211.66625" xlink:href="#medf01c750e" y="194.954744551"/>
     <use style="fill:#0000ff;stroke:#0000ff;stroke-width:0.5;" x="222.82625" xlink:href="#medf01c750e" y="283.235735358"/>
     <use style="fill:#0000ff;stroke:#0000ff;stroke-width:0.5;" x="233.98625" xlink:href="#medf01c750e" y="194.954744551"/>
     <use style="fill:#0000ff;stroke:#0000ff;stroke-width:0.5;" x="245.14625" xlink:href="#medf01c750e" y="247.278125"/>
     <use style="fill:#0000ff;stroke:#0000ff;stroke-width:0.5;" x="256.30625" xlink:href="#medf01c750e" y="267.913761003"/>
     <use style="fill:#0000ff;stroke:#0000ff;stroke-width:0.5;" x="267.46625" xlink:href="#medf01c750e" y="257.622114574"/>
     <use style="fill:#0000ff;stroke:#0000ff;stroke-width:0.5;" x="278.62625" xlink:href="#medf01c750e" y="247.278125"/>
     <use style="fill:#0000ff;stroke:#0000ff;stroke-width:0.5;" x="289.78625" xlink:href="#medf01c750e" y="288.307213404"/>
     <use style="fill:#0000ff;stroke:#0000ff;stroke-width:0.5;" x="300.94625" xlink:href="#medf01c750e" y="293.358125"/>
     <use style="fill:#0000ff;stroke:#0000ff;stroke-width:0.5;" x="312.10625" xlink:href="#medf01c750e" y="257.622114574"/>
     <use style="fill:#0000ff;stroke:#0000ff;stroke-width:0.5;" x="323.26625" xlink:href="#medf01c750e" y="278.145382915"/>
     <use style="fill:#0000ff;stroke:#0000ff;stroke-width:0.5;" x="334.42625" xlink:href="#medf01c750e" y="273.037628101"/>
     <use style="fill:#0000ff;stroke:#0000ff;stroke-width:0.5;" x="345.58625" xlink:href="#medf01c750e" y="308.366100347"/>
     <use style="fill:#0000ff;stroke:#0000ff;stroke-width:0.5;" x="356.74625" xlink:href="#medf01c750e" y="293.358125"/>
     <use style="fill:#0000ff;stroke:#0000ff;stroke-width:0.5;" x="367.90625" xlink:href="#medf01c750e" y="303.390071548"/>
     <use style="fill:#0000ff;stroke:#0000ff;stroke-width:0.5;" x="379.06625" xlink:href="#medf01c750e" y="303.390071548"/>
     <use style="fill:#0000ff;stroke:#0000ff;stroke-width:0.5;" x="390.22625" xlink:href="#medf01c750e" y="273.037628101"/>
     <use style="fill:#0000ff;stroke:#0000ff;stroke-width:0.5;" x="401.38625" xlink:href="#medf01c750e" y="318.221883792"/>
     <use style="fill:#0000ff;stroke:#0000ff;stroke-width:0.5;" x="412.54625" xlink:href="#medf01c750e" y="327.918125"/>
     <use style="fill:#0000ff;stroke:#0000ff;stroke-width:0.5;" x="423.70625" xlink:href="#medf01c750e" y="303.390071548"/>
     <use style="fill:#0000ff;stroke:#0000ff;stroke-width:0.5;" x="434.86625" xlink:href="#medf01c750e" y="342.027185918"/>
     <use style="fill:#0000ff;stroke:#0000ff;stroke-width:0.5;" x="446.02625" xlink:href="#medf01c750e" y="350.958125"/>
     <use style="fill:#0000ff;stroke:#0000ff;stroke-width:0.5;" x="457.18625" xlink:href="#medf01c750e" y="337.397652552"/>
     <use style="fill:#0000ff;stroke:#0000ff;stroke-width:0.5;" x="468.34625" xlink:href="#medf01c750e" y="362.478125"/>
     <use style="fill:#0000ff;stroke:#0000ff;stroke-width:0.5;" x="479.50625" xlink:href="#medf01c750e" y="362.478125"/>
     <use style="fill:#0000ff;stroke:#0000ff;stroke-width:0.5;" x="490.66625" xlink:href="#medf01c750e" y="362.478125"/>
     <use style="fill:#0000ff;stroke:#0000ff;stroke-width:0.5;" x="501.82625" xlink:href="#medf01c750e" y="362.478125"/>
    </g>
   </g>
   <g id="line2d_2">
    <g clip-path="url(#p4ef7c01ce5)">
     <use style="fill:#0000ff;stroke:#0000ff;stroke-width:0.5;" x="66.58625" xlink:href="#medf01c750e" y="64.6388703488"/>
     <use style="fill:#0000ff;stroke:#0000ff;stroke-width:0.5;" x="77.74625" xlink:href="#medf01c750e" y="33.7487744037"/>
     <use style="fill:#0000ff;stroke:#0000ff;stroke-width:0.5;" x="88.90625" xlink:href="#medf01c750e" y="58.4519042972"/>
     <use style="fill:#0000ff;stroke:#0000ff;stroke-width:0.5;" x="100.06625" xlink:href="#medf01c750e" y="89.4361293924"/>
     <use style="fill:#0000ff;stroke:#0000ff;stroke-width:0.5;" x="111.22625" xlink:href="#medf01c750e" y="33.7487744037"/>
     <use style="fill:#0000ff;stroke:#0000ff;stroke-width:0.5;" x="122.38625" xlink:href="#medf01c750e" y="46.0916743936"/>
     <use style="fill:#0000ff;stroke:#0000ff;stroke-width:0.5;" x="133.54625" xlink:href="#medf01c750e" y="89.4361293924"/>
     <use style="fill:#0000ff;stroke:#0000ff;stroke-width:0.5;" x="144.70625" xlink:href="#medf01c750e" y="77.0272791"/>
     <use style="fill:#0000ff;stroke:#0000ff;stroke-width:0.5;" x="155.86625" xlink:href="#medf01c750e" y="70.8306074151"/>
     <use style="fill:#0000ff;stroke:#0000ff;stroke-width:0.5;" x="167.02625" xlink:href="#medf01c750e" y="151.84780227"/>
     <use style="fill:#0000ff;stroke:#0000ff;stroke-width:0.5;" x="178.18625" xlink:href="#medf01c750e" y="89.4361293924"/>
     <use style="fill:#0000ff;stroke:#0000ff;stroke-width:0.5;" x="189.34625" xlink:href="#medf01c750e" y="126.801505449"/>
     <use style="fill:#0000ff;stroke:#0000ff;stroke-width:0.5;" x="200.50625" xlink:href="#medf01c750e" y="158.129305688"/>
     <use style="fill:#0000ff;stroke:#0000ff;stroke-width:0.5;" x="211.66625" xlink:href="#medf01c750e" y="126.801505449"/>
     <use style="fill:#0000ff;stroke:#0000ff;stroke-width:0.5;" x="222.82625" xlink:href="#medf01c750e" y="234.360514642"/>
     <use style="fill:#0000ff;stroke:#0000ff;stroke-width:0.5;" x="233.98625" xlink:href="#medf01c750e" y="126.801505449"/>
     <use style="fill:#0000ff;stroke:#0000ff;stroke-width:0.5;" x="245.14625" xlink:href="#medf01c750e" y="189.678125"/>
     <use style="fill:#0000ff;stroke:#0000ff;stroke-width:0.5;" x="256.30625" xlink:href="#medf01c750e" y="215.122488997"/>
     <use style="fill:#0000ff;stroke:#0000ff;stroke-width:0.5;" x="267.46625" xlink:href="#medf01c750e" y="202.374135426"/>
     <use style="fill:#0000ff;stroke:#0000ff;stroke-width:0.5;" x="278.62625" xlink:href="#medf01c750e" y="189.678125"/>
     <use style="fill:#0000ff;stroke:#0000ff;stroke-width:0.5;" x="289.78625" xlink:href="#medf01c750e" y="240.809036596"/>
     <use style="fill:#0000ff;stroke:#0000ff;stroke-width:0.5;" x="300.94625" xlink:href="#medf01c750e" y="247.278125"/>
     <use style="fill:#0000ff;stroke:#0000ff;stroke-width:0.5;" x="312.10625" xlink:href="#medf01c750e" y="202.374135426"/>
     <use style="fill:#0000ff;stroke:#0000ff;stroke-width:0.5;" x="323.26625" xlink:href="#medf01c750e" y="227.930867085"/>
     <use style="fill:#0000ff;stroke:#0000ff;stroke-width:0.5;" x="334.42625" xlink:href="#medf01c750e" y="221.518621899"/>
     <use style="fill:#0000ff;stroke:#0000ff;stroke-width:0.5;" x="345.58625" xlink:href="#medf01c750e" y="266.830149653"/>
     <use style="fill:#0000ff;stroke:#0000ff;stroke-width:0.5;" x="356.74625" xlink:href="#medf01c750e" y="247.278125"/>
     <use style="fill:#0000ff;stroke:#0000ff;stroke-width:0.5;" x="367.90625" xlink:href="#medf01c750e" y="260.286178452"/>
     <use style="fill:#0000ff;stroke:#0000ff;stroke-width:0.5;" x="379.06625" xlink:href="#medf01c750e" y="260.286178452"/>
     <use style="fill:#0000ff;stroke:#0000ff;stroke-width:0.5;" x="390.22625" xlink:href="#medf01c750e" y="221.518621899"/>
     <use style="fill:#0000ff;stroke:#0000ff;stroke-width:0.5;" x="401.38625" xlink:href="#medf01c750e" y="280.014366208"/>
     <use style="fill:#0000ff;stroke:#0000ff;stroke-width:0.5;" x="412.54625" xlink:href="#medf01c750e" y="293.358125"/>
     <use style="fill:#0000ff;stroke:#0000ff;stroke-width:0.5;" x="423.70625" xlink:href="#medf01c750e" y="260.286178452"/>
     <use style="fill:#0000ff;stroke:#0000ff;stroke-width:0.5;" x="434.86625" xlink:href="#medf01c750e" y="313.809064082"/>
     <use style="fill:#0000ff;stroke:#0000ff;stroke-width:0.5;" x="446.02625" xlink:href="#medf01c750e" y="327.918125"/>
     <use style="fill:#0000ff;stroke:#0000ff;stroke-width:0.5;" x="457.18625" xlink:href="#medf01c750e" y="306.918597448"/>
     <use style="fill:#0000ff;stroke:#0000ff;stroke-width:0.5;" x="468.34625" xlink:href="#medf01c750e" y="350.958125"/>
     <use style="fill:#0000ff;stroke:#0000ff;stroke-width:0.5;" x="479.50625" xlink:href="#medf01c750e" y="350.958125"/>
     <use style="fill:#0000ff;stroke:#0000ff;stroke-width:0.5;" x="490.66625" xlink:href="#medf01c750e" y="362.478125"/>
     <use style="fill:#0000ff;stroke:#0000ff;stroke-width:0.5;" x="501.82625" xlink:href="#medf01c750e" y="362.478125"/>
    </g>
   </g>
   <g id="line2d_3">
    <path clip-path="url(#p4ef7c01ce5)" d="M 66.58625 91.729325 
L 77.74625 98.583725 
L 88.90625 105.438125 
L 100.06625 112.292525 
L 111.22625 119.146925 
L 122.38625 126.001325 
L 133.54625 132.855725 
L 144.70625 139.710125 
L 155.86625 146.564525 
L 167.02625 153.418925 
L 178.18625 160.273325 
L 189.34625 167.127725 
L 200.50625 173.982125 
L 211.66625 180.836525 
L 222.82625 187.690925 
L 233.98625 194.545325 
L 245.14625 201.399725 
L 256.30625 208.254125 
L 267.46625 215.108525 
L 278.62625 221.962925 
L 289.78625 228.817325 
L 300.94625 235.671725 
L 312.10625 242.526125 
L 323.26625 249.380525 
L 334.42625 256.234925 
L 345.58625 263.089325 
L 356.74625 269.943725 
L 367.90625 276.798125 
L 379.06625 283.652525 
L 390.22625 290.506925 
L 401.38625 297.361325 
L 412.54625 304.215725 
L 423.70625 311.070125 
L 434.86625 317.924525 
L 446.02625 324.778925 
L 457.18625 331.633325 
L 468.34625 338.487725 
L 479.50625 345.342125 
L 490.66625 352.196525 
L 501.82625 359.050925 
" style="fill:none;stroke:#008000;stroke-linecap:square;stroke-width:4.0;"/>
   </g>
   <g id="patch_43">
    <path d="M 61.00625 16.878125 
L 507.40625 16.878125 
" style="fill:none;stroke:#000000;stroke-linecap:square;stroke-linejoin:miter;"/>
   </g>
   <g id="patch_44">
    <path d="M 507.40625 362.478125 
L 507.40625 16.878125 
" style="fill:none;stroke:#000000;stroke-linecap:square;stroke-linejoin:miter;"/>
   </g>
   <g id="patch_45">
    <path d="M 61.00625 362.478125 
L 507.40625 362.478125 
" style="fill:none;stroke:#000000;stroke-linecap:square;stroke-linejoin:miter;"/>
   </g>
   <g id="patch_46">
    <path d="M 61.00625 362.478125 
L 61.00625 16.878125 
" style="fill:none;stroke:#000000;stroke-linecap:square;stroke-linejoin:miter;"/>
   </g>
   <g id="matplotlib.axis_1">
    <g id="xtick_1">
     <g id="line2d_4">
      <defs>
       <path d="M 0 0 
L 0 -4 
" id="m05d6980981" style="stroke:#000000;stroke-width:0.5;"/>
      </defs>
      <g>
       <use style="stroke:#000000;stroke-width:0.5;" x="61.00625" xlink:href="#m05d6980981" y="362.478125"/>
      </g>
     </g>
     <g id="line2d_5">
      <defs>
       <path d="M 0 0 
L 0 4 
" id="m7cae461621" style="stroke:#000000;stroke-width:0.5;"/>
      </defs>
      <g>
       <use style="stroke:#000000;stroke-width:0.5;" x="61.00625" xlink:href="#m7cae461621" y="16.878125"/>
      </g>
     </g>
     <g id="text_1">
      <!-- 0.0 -->
      <defs>
       <path d="M 31.78125 66.40625 
Q 24.171875 66.40625 20.328125 58.90625 
Q 16.5 51.421875 16.5 36.375 
Q 16.5 21.390625 20.328125 13.890625 
Q 24.171875 6.390625 31.78125 6.390625 
Q 39.453125 6.390625 43.28125 13.890625 
Q 47.125 21.390625 47.125 36.375 
Q 47.125 51.421875 43.28125 58.90625 
Q 39.453125 66.40625 31.78125 66.40625 
M 31.78125 74.21875 
Q 44.046875 74.21875 50.515625 64.515625 
Q 56.984375 54.828125 56.984375 36.375 
Q 56.984375 17.96875 50.515625 8.265625 
Q 44.046875 -1.421875 31.78125 -1.421875 
Q 19.53125 -1.421875 13.0625 8.265625 
Q 6.59375 17.96875 6.59375 36.375 
Q 6.59375 54.828125 13.0625 64.515625 
Q 19.53125 74.21875 31.78125 74.21875 
" id="BitstreamVeraSans-Roman-30"/>
       <path d="M 10.6875 12.40625 
L 21 12.40625 
L 21 0 
L 10.6875 0 
z
" id="BitstreamVeraSans-Roman-2e"/>
      </defs>
      <g transform="translate(45.103125 381.675)scale(0.2 -0.2)">
       <use xlink:href="#BitstreamVeraSans-Roman-30"/>
       <use x="63.623046875" xlink:href="#BitstreamVeraSans-Roman-2e"/>
       <use x="95.41015625" xlink:href="#BitstreamVeraSans-Roman-30"/>
      </g>
     </g>
    </g>
    <g id="xtick_2">
     <g id="line2d_6">
      <g>
       <use style="stroke:#000000;stroke-width:0.5;" x="150.28625" xlink:href="#m05d6980981" y="362.478125"/>
      </g>
     </g>
     <g id="line2d_7">
      <g>
       <use style="stroke:#000000;stroke-width:0.5;" x="150.28625" xlink:href="#m7cae461621" y="16.878125"/>
      </g>
     </g>
     <g id="text_2">
      <!-- 2.0 -->
      <defs>
       <path d="M 19.1875 8.296875 
L 53.609375 8.296875 
L 53.609375 0 
L 7.328125 0 
L 7.328125 8.296875 
Q 12.9375 14.109375 22.625 23.890625 
Q 32.328125 33.6875 34.8125 36.53125 
Q 39.546875 41.84375 41.421875 45.53125 
Q 43.3125 49.21875 43.3125 52.78125 
Q 43.3125 58.59375 39.234375 62.25 
Q 35.15625 65.921875 28.609375 65.921875 
Q 23.96875 65.921875 18.8125 64.3125 
Q 13.671875 62.703125 7.8125 59.421875 
L 7.8125 69.390625 
Q 13.765625 71.78125 18.9375 73 
Q 24.125 74.21875 28.421875 74.21875 
Q 39.75 74.21875 46.484375 68.546875 
Q 53.21875 62.890625 53.21875 53.421875 
Q 53.21875 48.921875 51.53125 44.890625 
Q 49.859375 40.875 45.40625 35.40625 
Q 44.1875 33.984375 37.640625 27.21875 
Q 31.109375 20.453125 19.1875 8.296875 
" id="BitstreamVeraSans-Roman-32"/>
      </defs>
      <g transform="translate(134.383125 381.675)scale(0.2 -0.2)">
       <use xlink:href="#BitstreamVeraSans-Roman-32"/>
       <use x="63.623046875" xlink:href="#BitstreamVeraSans-Roman-2e"/>
       <use x="95.41015625" xlink:href="#BitstreamVeraSans-Roman-30"/>
      </g>
     </g>
    </g>
    <g id="xtick_3">
     <g id="line2d_8">
      <g>
       <use style="stroke:#000000;stroke-width:0.5;" x="239.56625" xlink:href="#m05d6980981" y="362.478125"/>
      </g>
     </g>
     <g id="line2d_9">
      <g>
       <use style="stroke:#000000;stroke-width:0.5;" x="239.56625" xlink:href="#m7cae461621" y="16.878125"/>
      </g>
     </g>
     <g id="text_3">
      <!-- 4.0 -->
      <defs>
       <path d="M 37.796875 64.3125 
L 12.890625 25.390625 
L 37.796875 25.390625 
z
M 35.203125 72.90625 
L 47.609375 72.90625 
L 47.609375 25.390625 
L 58.015625 25.390625 
L 58.015625 17.1875 
L 47.609375 17.1875 
L 47.609375 0 
L 37.796875 0 
L 37.796875 17.1875 
L 4.890625 17.1875 
L 4.890625 26.703125 
z
" id="BitstreamVeraSans-Roman-34"/>
      </defs>
      <g transform="translate(223.663125 381.675)scale(0.2 -0.2)">
       <use xlink:href="#BitstreamVeraSans-Roman-34"/>
       <use x="63.623046875" xlink:href="#BitstreamVeraSans-Roman-2e"/>
       <use x="95.41015625" xlink:href="#BitstreamVeraSans-Roman-30"/>
      </g>
     </g>
    </g>
    <g id="xtick_4">
     <g id="line2d_10">
      <g>
       <use style="stroke:#000000;stroke-width:0.5;" x="328.84625" xlink:href="#m05d6980981" y="362.478125"/>
      </g>
     </g>
     <g id="line2d_11">
      <g>
       <use style="stroke:#000000;stroke-width:0.5;" x="328.84625" xlink:href="#m7cae461621" y="16.878125"/>
      </g>
     </g>
     <g id="text_4">
      <!-- 6.0 -->
      <defs>
       <path d="M 33.015625 40.375 
Q 26.375 40.375 22.484375 35.828125 
Q 18.609375 31.296875 18.609375 23.390625 
Q 18.609375 15.53125 22.484375 10.953125 
Q 26.375 6.390625 33.015625 6.390625 
Q 39.65625 6.390625 43.53125 10.953125 
Q 47.40625 15.53125 47.40625 23.390625 
Q 47.40625 31.296875 43.53125 35.828125 
Q 39.65625 40.375 33.015625 40.375 
M 52.59375 71.296875 
L 52.59375 62.3125 
Q 48.875 64.0625 45.09375 64.984375 
Q 41.3125 65.921875 37.59375 65.921875 
Q 27.828125 65.921875 22.671875 59.328125 
Q 17.53125 52.734375 16.796875 39.40625 
Q 19.671875 43.65625 24.015625 45.921875 
Q 28.375 48.1875 33.59375 48.1875 
Q 44.578125 48.1875 50.953125 41.515625 
Q 57.328125 34.859375 57.328125 23.390625 
Q 57.328125 12.15625 50.6875 5.359375 
Q 44.046875 -1.421875 33.015625 -1.421875 
Q 20.359375 -1.421875 13.671875 8.265625 
Q 6.984375 17.96875 6.984375 36.375 
Q 6.984375 53.65625 15.1875 63.9375 
Q 23.390625 74.21875 37.203125 74.21875 
Q 40.921875 74.21875 44.703125 73.484375 
Q 48.484375 72.75 52.59375 71.296875 
" id="BitstreamVeraSans-Roman-36"/>
      </defs>
      <g transform="translate(312.943125 381.675)scale(0.2 -0.2)">
       <use xlink:href="#BitstreamVeraSans-Roman-36"/>
       <use x="63.623046875" xlink:href="#BitstreamVeraSans-Roman-2e"/>
       <use x="95.41015625" xlink:href="#BitstreamVeraSans-Roman-30"/>
      </g>
     </g>
    </g>
    <g id="xtick_5">
     <g id="line2d_12">
      <g>
       <use style="stroke:#000000;stroke-width:0.5;" x="418.12625" xlink:href="#m05d6980981" y="362.478125"/>
      </g>
     </g>
     <g id="line2d_13">
      <g>
       <use style="stroke:#000000;stroke-width:0.5;" x="418.12625" xlink:href="#m7cae461621" y="16.878125"/>
      </g>
     </g>
     <g id="text_5">
      <!-- 8.0 -->
      <defs>
       <path d="M 31.78125 34.625 
Q 24.75 34.625 20.71875 30.859375 
Q 16.703125 27.09375 16.703125 20.515625 
Q 16.703125 13.921875 20.71875 10.15625 
Q 24.75 6.390625 31.78125 6.390625 
Q 38.8125 6.390625 42.859375 10.171875 
Q 46.921875 13.96875 46.921875 20.515625 
Q 46.921875 27.09375 42.890625 30.859375 
Q 38.875 34.625 31.78125 34.625 
M 21.921875 38.8125 
Q 15.578125 40.375 12.03125 44.71875 
Q 8.5 49.078125 8.5 55.328125 
Q 8.5 64.0625 14.71875 69.140625 
Q 20.953125 74.21875 31.78125 74.21875 
Q 42.671875 74.21875 48.875 69.140625 
Q 55.078125 64.0625 55.078125 55.328125 
Q 55.078125 49.078125 51.53125 44.71875 
Q 48 40.375 41.703125 38.8125 
Q 48.828125 37.15625 52.796875 32.3125 
Q 56.78125 27.484375 56.78125 20.515625 
Q 56.78125 9.90625 50.3125 4.234375 
Q 43.84375 -1.421875 31.78125 -1.421875 
Q 19.734375 -1.421875 13.25 4.234375 
Q 6.78125 9.90625 6.78125 20.515625 
Q 6.78125 27.484375 10.78125 32.3125 
Q 14.796875 37.15625 21.921875 38.8125 
M 18.3125 54.390625 
Q 18.3125 48.734375 21.84375 45.5625 
Q 25.390625 42.390625 31.78125 42.390625 
Q 38.140625 42.390625 41.71875 45.5625 
Q 45.3125 48.734375 45.3125 54.390625 
Q 45.3125 60.0625 41.71875 63.234375 
Q 38.140625 66.40625 31.78125 66.40625 
Q 25.390625 66.40625 21.84375 63.234375 
Q 18.3125 60.0625 18.3125 54.390625 
" id="BitstreamVeraSans-Roman-38"/>
      </defs>
      <g transform="translate(402.223125 381.675)scale(0.2 -0.2)">
       <use xlink:href="#BitstreamVeraSans-Roman-38"/>
       <use x="63.623046875" xlink:href="#BitstreamVeraSans-Roman-2e"/>
       <use x="95.41015625" xlink:href="#BitstreamVeraSans-Roman-30"/>
      </g>
     </g>
    </g>
    <g id="xtick_6">
     <g id="line2d_14">
      <g>
       <use style="stroke:#000000;stroke-width:0.5;" x="507.40625" xlink:href="#m05d6980981" y="362.478125"/>
      </g>
     </g>
     <g id="line2d_15">
      <g>
       <use style="stroke:#000000;stroke-width:0.5;" x="507.40625" xlink:href="#m7cae461621" y="16.878125"/>
      </g>
     </g>
     <g id="text_6">
      <!-- 10.0 -->
      <defs>
       <path d="M 12.40625 8.296875 
L 28.515625 8.296875 
L 28.515625 63.921875 
L 10.984375 60.40625 
L 10.984375 69.390625 
L 28.421875 72.90625 
L 38.28125 72.90625 
L 38.28125 8.296875 
L 54.390625 8.296875 
L 54.390625 0 
L 12.40625 0 
z
" id="BitstreamVeraSans-Roman-31"/>
      </defs>
      <g transform="translate(485.140625 381.675)scale(0.2 -0.2)">
       <use xlink:href="#BitstreamVeraSans-Roman-31"/>
       <use x="63.623046875" xlink:href="#BitstreamVeraSans-Roman-30"/>
       <use x="127.24609375" xlink:href="#BitstreamVeraSans-Roman-2e"/>
       <use x="159.033203125" xlink:href="#BitstreamVeraSans-Roman-30"/>
      </g>
     </g>
    </g>
    <g id="text_7">
     <!-- pulse separation (us) -->
     <defs>
      <path id="BitstreamVeraSans-Roman-20"/>
      <path d="M 54.890625 33.015625 
L 54.890625 0 
L 45.90625 0 
L 45.90625 32.71875 
Q 45.90625 40.484375 42.875 44.328125 
Q 39.84375 48.1875 33.796875 48.1875 
Q 26.515625 48.1875 22.3125 43.546875 
Q 18.109375 38.921875 18.109375 30.90625 
L 18.109375 0 
L 9.078125 0 
L 9.078125 54.6875 
L 18.109375 54.6875 
L 18.109375 46.1875 
Q 21.34375 51.125 25.703125 53.5625 
Q 30.078125 56 35.796875 56 
Q 45.21875 56 50.046875 50.171875 
Q 54.890625 44.34375 54.890625 33.015625 
" id="BitstreamVeraSans-Roman-6e"/>
      <path d="M 41.109375 46.296875 
Q 39.59375 47.171875 37.8125 47.578125 
Q 36.03125 48 33.890625 48 
Q 26.265625 48 22.1875 43.046875 
Q 18.109375 38.09375 18.109375 28.8125 
L 18.109375 0 
L 9.078125 0 
L 9.078125 54.6875 
L 18.109375 54.6875 
L 18.109375 46.1875 
Q 20.953125 51.171875 25.484375 53.578125 
Q 30.03125 56 36.53125 56 
Q 37.453125 56 38.578125 55.875 
Q 39.703125 55.765625 41.0625 55.515625 
z
" id="BitstreamVeraSans-Roman-72"/>
      <path d="M 30.609375 48.390625 
Q 23.390625 48.390625 19.1875 42.75 
Q 14.984375 37.109375 14.984375 27.296875 
Q 14.984375 17.484375 19.15625 11.84375 
Q 23.34375 6.203125 30.609375 6.203125 
Q 37.796875 6.203125 41.984375 11.859375 
Q 46.1875 17.53125 46.1875 27.296875 
Q 46.1875 37.015625 41.984375 42.703125 
Q 37.796875 48.390625 30.609375 48.390625 
M 30.609375 56 
Q 42.328125 56 49.015625 48.375 
Q 55.71875 40.765625 55.71875 27.296875 
Q 55.71875 13.875 49.015625 6.21875 
Q 42.328125 -1.421875 30.609375 -1.421875 
Q 18.84375 -1.421875 12.171875 6.21875 
Q 5.515625 13.875 5.515625 27.296875 
Q 5.515625 40.765625 12.171875 48.375 
Q 18.84375 56 30.609375 56 
" id="BitstreamVeraSans-Roman-6f"/>
      <path d="M 9.421875 75.984375 
L 18.40625 75.984375 
L 18.40625 0 
L 9.421875 0 
z
" id="BitstreamVeraSans-Roman-6c"/>
      <path d="M 8.015625 75.875 
L 15.828125 75.875 
Q 23.140625 64.359375 26.78125 53.3125 
Q 30.421875 42.28125 30.421875 31.390625 
Q 30.421875 20.453125 26.78125 9.375 
Q 23.140625 -1.703125 15.828125 -13.1875 
L 8.015625 -13.1875 
Q 14.5 -2 17.703125 9.0625 
Q 20.90625 20.125 20.90625 31.390625 
Q 20.90625 42.671875 17.703125 53.65625 
Q 14.5 64.65625 8.015625 75.875 
" id="BitstreamVeraSans-Roman-29"/>
      <path d="M 9.421875 54.6875 
L 18.40625 54.6875 
L 18.40625 0 
L 9.421875 0 
z
M 9.421875 75.984375 
L 18.40625 75.984375 
L 18.40625 64.59375 
L 9.421875 64.59375 
z
" id="BitstreamVeraSans-Roman-69"/>
      <path d="M 31 75.875 
Q 24.46875 64.65625 21.28125 53.65625 
Q 18.109375 42.671875 18.109375 31.390625 
Q 18.109375 20.125 21.3125 9.0625 
Q 24.515625 -2 31 -13.1875 
L 23.1875 -13.1875 
Q 15.875 -1.703125 12.234375 9.375 
Q 8.59375 20.453125 8.59375 31.390625 
Q 8.59375 42.28125 12.203125 53.3125 
Q 15.828125 64.359375 23.1875 75.875 
z
" id="BitstreamVeraSans-Roman-28"/>
      <path d="M 56.203125 29.59375 
L 56.203125 25.203125 
L 14.890625 25.203125 
Q 15.484375 15.921875 20.484375 11.0625 
Q 25.484375 6.203125 34.421875 6.203125 
Q 39.59375 6.203125 44.453125 7.46875 
Q 49.3125 8.734375 54.109375 11.28125 
L 54.109375 2.78125 
Q 49.265625 0.734375 44.1875 -0.34375 
Q 39.109375 -1.421875 33.890625 -1.421875 
Q 20.796875 -1.421875 13.15625 6.1875 
Q 5.515625 13.8125 5.515625 26.8125 
Q 5.515625 40.234375 12.765625 48.109375 
Q 20.015625 56 32.328125 56 
Q 43.359375 56 49.78125 48.890625 
Q 56.203125 41.796875 56.203125 29.59375 
M 47.21875 32.234375 
Q 47.125 39.59375 43.09375 43.984375 
Q 39.0625 48.390625 32.421875 48.390625 
Q 24.90625 48.390625 20.390625 44.140625 
Q 15.875 39.890625 15.1875 32.171875 
z
" id="BitstreamVeraSans-Roman-65"/>
      <path d="M 18.3125 70.21875 
L 18.3125 54.6875 
L 36.8125 54.6875 
L 36.8125 47.703125 
L 18.3125 47.703125 
L 18.3125 18.015625 
Q 18.3125 11.328125 20.140625 9.421875 
Q 21.96875 7.515625 27.59375 7.515625 
L 36.8125 7.515625 
L 36.8125 0 
L 27.59375 0 
Q 17.1875 0 13.234375 3.875 
Q 9.28125 7.765625 9.28125 18.015625 
L 9.28125 47.703125 
L 2.6875 47.703125 
L 2.6875 54.6875 
L 9.28125 54.6875 
L 9.28125 70.21875 
z
" id="BitstreamVeraSans-Roman-74"/>
      <path d="M 8.5 21.578125 
L 8.5 54.6875 
L 17.484375 54.6875 
L 17.484375 21.921875 
Q 17.484375 14.15625 20.5 10.265625 
Q 23.53125 6.390625 29.59375 6.390625 
Q 36.859375 6.390625 41.078125 11.03125 
Q 45.3125 15.671875 45.3125 23.6875 
L 45.3125 54.6875 
L 54.296875 54.6875 
L 54.296875 0 
L 45.3125 0 
L 45.3125 8.40625 
Q 42.046875 3.421875 37.71875 1 
Q 33.40625 -1.421875 27.6875 -1.421875 
Q 18.265625 -1.421875 13.375 4.4375 
Q 8.5 10.296875 8.5 21.578125 
" id="BitstreamVeraSans-Roman-75"/>
      <path d="M 34.28125 27.484375 
Q 23.390625 27.484375 19.1875 25 
Q 14.984375 22.515625 14.984375 16.5 
Q 14.984375 11.71875 18.140625 8.90625 
Q 21.296875 6.109375 26.703125 6.109375 
Q 34.1875 6.109375 38.703125 11.40625 
Q 43.21875 16.703125 43.21875 25.484375 
L 43.21875 27.484375 
z
M 52.203125 31.203125 
L 52.203125 0 
L 43.21875 0 
L 43.21875 8.296875 
Q 40.140625 3.328125 35.546875 0.953125 
Q 30.953125 -1.421875 24.3125 -1.421875 
Q 15.921875 -1.421875 10.953125 3.296875 
Q 6 8.015625 6 15.921875 
Q 6 25.140625 12.171875 29.828125 
Q 18.359375 34.515625 30.609375 34.515625 
L 43.21875 34.515625 
L 43.21875 35.40625 
Q 43.21875 41.609375 39.140625 45 
Q 35.0625 48.390625 27.6875 48.390625 
Q 23 48.390625 18.546875 47.265625 
Q 14.109375 46.140625 10.015625 43.890625 
L 10.015625 52.203125 
Q 14.9375 54.109375 19.578125 55.046875 
Q 24.21875 56 28.609375 56 
Q 40.484375 56 46.34375 49.84375 
Q 52.203125 43.703125 52.203125 31.203125 
" id="BitstreamVeraSans-Roman-61"/>
      <path d="M 44.28125 53.078125 
L 44.28125 44.578125 
Q 40.484375 46.53125 36.375 47.5 
Q 32.28125 48.484375 27.875 48.484375 
Q 21.1875 48.484375 17.84375 46.4375 
Q 14.5 44.390625 14.5 40.28125 
Q 14.5 37.15625 16.890625 35.375 
Q 19.28125 33.59375 26.515625 31.984375 
L 29.59375 31.296875 
Q 39.15625 29.25 43.1875 25.515625 
Q 47.21875 21.78125 47.21875 15.09375 
Q 47.21875 7.46875 41.1875 3.015625 
Q 35.15625 -1.421875 24.609375 -1.421875 
Q 20.21875 -1.421875 15.453125 -0.5625 
Q 10.6875 0.296875 5.421875 2 
L 5.421875 11.28125 
Q 10.40625 8.6875 15.234375 7.390625 
Q 20.0625 6.109375 24.8125 6.109375 
Q 31.15625 6.109375 34.5625 8.28125 
Q 37.984375 10.453125 37.984375 14.40625 
Q 37.984375 18.0625 35.515625 20.015625 
Q 33.0625 21.96875 24.703125 23.78125 
L 21.578125 24.515625 
Q 13.234375 26.265625 9.515625 29.90625 
Q 5.8125 33.546875 5.8125 39.890625 
Q 5.8125 47.609375 11.28125 51.796875 
Q 16.75 56 26.8125 56 
Q 31.78125 56 36.171875 55.265625 
Q 40.578125 54.546875 44.28125 53.078125 
" id="BitstreamVeraSans-Roman-73"/>
      <path d="M 18.109375 8.203125 
L 18.109375 -20.796875 
L 9.078125 -20.796875 
L 9.078125 54.6875 
L 18.109375 54.6875 
L 18.109375 46.390625 
Q 20.953125 51.265625 25.265625 53.625 
Q 29.59375 56 35.59375 56 
Q 45.5625 56 51.78125 48.09375 
Q 58.015625 40.1875 58.015625 27.296875 
Q 58.015625 14.40625 51.78125 6.484375 
Q 45.5625 -1.421875 35.59375 -1.421875 
Q 29.59375 -1.421875 25.265625 0.953125 
Q 20.953125 3.328125 18.109375 8.203125 
M 48.6875 27.296875 
Q 48.6875 37.203125 44.609375 42.84375 
Q 40.53125 48.484375 33.40625 48.484375 
Q 26.265625 48.484375 22.1875 42.84375 
Q 18.109375 37.203125 18.109375 27.296875 
Q 18.109375 17.390625 22.1875 11.75 
Q 26.265625 6.109375 33.40625 6.109375 
Q 40.53125 6.109375 44.609375 11.75 
Q 48.6875 17.390625 48.6875 27.296875 
" id="BitstreamVeraSans-Roman-70"/>
     </defs>
     <g transform="translate(178.440625 406.03125)scale(0.2 -0.2)">
      <use xlink:href="#BitstreamVeraSans-Roman-70"/>
      <use x="63.4765625" xlink:href="#BitstreamVeraSans-Roman-75"/>
      <use x="126.85546875" xlink:href="#BitstreamVeraSans-Roman-6c"/>
      <use x="154.638671875" xlink:href="#BitstreamVeraSans-Roman-73"/>
      <use x="206.73828125" xlink:href="#BitstreamVeraSans-Roman-65"/>
      <use x="268.26171875" xlink:href="#BitstreamVeraSans-Roman-20"/>
      <use x="300.048828125" xlink:href="#BitstreamVeraSans-Roman-73"/>
      <use x="352.1484375" xlink:href="#BitstreamVeraSans-Roman-65"/>
      <use x="413.671875" xlink:href="#BitstreamVeraSans-Roman-70"/>
      <use x="477.1484375" xlink:href="#BitstreamVeraSans-Roman-61"/>
      <use x="538.427734375" xlink:href="#BitstreamVeraSans-Roman-72"/>
      <use x="579.541015625" xlink:href="#BitstreamVeraSans-Roman-61"/>
      <use x="640.8203125" xlink:href="#BitstreamVeraSans-Roman-74"/>
      <use x="680.029296875" xlink:href="#BitstreamVeraSans-Roman-69"/>
      <use x="707.8125" xlink:href="#BitstreamVeraSans-Roman-6f"/>
      <use x="768.994140625" xlink:href="#BitstreamVeraSans-Roman-6e"/>
      <use x="832.373046875" xlink:href="#BitstreamVeraSans-Roman-20"/>
      <use x="864.16015625" xlink:href="#BitstreamVeraSans-Roman-28"/>
      <use x="903.173828125" xlink:href="#BitstreamVeraSans-Roman-75"/>
      <use x="966.552734375" xlink:href="#BitstreamVeraSans-Roman-73"/>
      <use x="1018.65234375" xlink:href="#BitstreamVeraSans-Roman-29"/>
     </g>
    </g>
   </g>
   <g id="matplotlib.axis_2">
    <g id="ytick_1">
     <g id="line2d_16">
      <defs>
       <path d="M 0 0 
L 4 0 
" id="m281fba61fb" style="stroke:#000000;stroke-width:0.5;"/>
      </defs>
      <g>
       <use style="stroke:#000000;stroke-width:0.5;" x="61.00625" xlink:href="#m281fba61fb" y="362.478125"/>
      </g>
     </g>
     <g id="line2d_17">
      <defs>
       <path d="M 0 0 
L -4 0 
" id="m7b00238918" style="stroke:#000000;stroke-width:0.5;"/>
      </defs>
      <g>
       <use style="stroke:#000000;stroke-width:0.5;" x="507.40625" xlink:href="#m7b00238918" y="362.478125"/>
      </g>
     </g>
     <g id="text_8">
      <!-- 0 -->
      <g transform="translate(44.28125 367.996875)scale(0.2 -0.2)">
       <use xlink:href="#BitstreamVeraSans-Roman-30"/>
      </g>
     </g>
    </g>
    <g id="ytick_2">
     <g id="line2d_18">
      <g>
       <use style="stroke:#000000;stroke-width:0.5;" x="61.00625" xlink:href="#m281fba61fb" y="304.878125"/>
      </g>
     </g>
     <g id="line2d_19">
      <g>
       <use style="stroke:#000000;stroke-width:0.5;" x="507.40625" xlink:href="#m7b00238918" y="304.878125"/>
      </g>
     </g>
     <g id="text_9">
      <!-- 10 -->
      <g transform="translate(31.55625 310.396875)scale(0.2 -0.2)">
       <use xlink:href="#BitstreamVeraSans-Roman-31"/>
       <use x="63.623046875" xlink:href="#BitstreamVeraSans-Roman-30"/>
      </g>
     </g>
    </g>
    <g id="ytick_3">
     <g id="line2d_20">
      <g>
       <use style="stroke:#000000;stroke-width:0.5;" x="61.00625" xlink:href="#m281fba61fb" y="247.278125"/>
      </g>
     </g>
     <g id="line2d_21">
      <g>
       <use style="stroke:#000000;stroke-width:0.5;" x="507.40625" xlink:href="#m7b00238918" y="247.278125"/>
      </g>
     </g>
     <g id="text_10">
      <!-- 20 -->
      <g transform="translate(31.55625 252.796875)scale(0.2 -0.2)">
       <use xlink:href="#BitstreamVeraSans-Roman-32"/>
       <use x="63.623046875" xlink:href="#BitstreamVeraSans-Roman-30"/>
      </g>
     </g>
    </g>
    <g id="ytick_4">
     <g id="line2d_22">
      <g>
       <use style="stroke:#000000;stroke-width:0.5;" x="61.00625" xlink:href="#m281fba61fb" y="189.678125"/>
      </g>
     </g>
     <g id="line2d_23">
      <g>
       <use style="stroke:#000000;stroke-width:0.5;" x="507.40625" xlink:href="#m7b00238918" y="189.678125"/>
      </g>
     </g>
     <g id="text_11">
      <!-- 30 -->
      <defs>
       <path d="M 40.578125 39.3125 
Q 47.65625 37.796875 51.625 33 
Q 55.609375 28.21875 55.609375 21.1875 
Q 55.609375 10.40625 48.1875 4.484375 
Q 40.765625 -1.421875 27.09375 -1.421875 
Q 22.515625 -1.421875 17.65625 -0.515625 
Q 12.796875 0.390625 7.625 2.203125 
L 7.625 11.71875 
Q 11.71875 9.328125 16.59375 8.109375 
Q 21.484375 6.890625 26.8125 6.890625 
Q 36.078125 6.890625 40.9375 10.546875 
Q 45.796875 14.203125 45.796875 21.1875 
Q 45.796875 27.640625 41.28125 31.265625 
Q 36.765625 34.90625 28.71875 34.90625 
L 20.21875 34.90625 
L 20.21875 43.015625 
L 29.109375 43.015625 
Q 36.375 43.015625 40.234375 45.921875 
Q 44.09375 48.828125 44.09375 54.296875 
Q 44.09375 59.90625 40.109375 62.90625 
Q 36.140625 65.921875 28.71875 65.921875 
Q 24.65625 65.921875 20.015625 65.03125 
Q 15.375 64.15625 9.8125 62.3125 
L 9.8125 71.09375 
Q 15.4375 72.65625 20.34375 73.4375 
Q 25.25 74.21875 29.59375 74.21875 
Q 40.828125 74.21875 47.359375 69.109375 
Q 53.90625 64.015625 53.90625 55.328125 
Q 53.90625 49.265625 50.4375 45.09375 
Q 46.96875 40.921875 40.578125 39.3125 
" id="BitstreamVeraSans-Roman-33"/>
      </defs>
      <g transform="translate(31.55625 195.196875)scale(0.2 -0.2)">
       <use xlink:href="#BitstreamVeraSans-Roman-33"/>
       <use x="63.623046875" xlink:href="#BitstreamVeraSans-Roman-30"/>
      </g>
     </g>
    </g>
    <g id="ytick_5">
     <g id="line2d_24">
      <g>
       <use style="stroke:#000000;stroke-width:0.5;" x="61.00625" xlink:href="#m281fba61fb" y="132.078125"/>
      </g>
     </g>
     <g id="line2d_25">
      <g>
       <use style="stroke:#000000;stroke-width:0.5;" x="507.40625" xlink:href="#m7b00238918" y="132.078125"/>
      </g>
     </g>
     <g id="text_12">
      <!-- 40 -->
      <g transform="translate(31.55625 137.596875)scale(0.2 -0.2)">
       <use xlink:href="#BitstreamVeraSans-Roman-34"/>
       <use x="63.623046875" xlink:href="#BitstreamVeraSans-Roman-30"/>
      </g>
     </g>
    </g>
    <g id="ytick_6">
     <g id="line2d_26">
      <g>
       <use style="stroke:#000000;stroke-width:0.5;" x="61.00625" xlink:href="#m281fba61fb" y="74.478125"/>
      </g>
     </g>
     <g id="line2d_27">
      <g>
       <use style="stroke:#000000;stroke-width:0.5;" x="507.40625" xlink:href="#m7b00238918" y="74.478125"/>
      </g>
     </g>
     <g id="text_13">
      <!-- 50 -->
      <defs>
       <path d="M 10.796875 72.90625 
L 49.515625 72.90625 
L 49.515625 64.59375 
L 19.828125 64.59375 
L 19.828125 46.734375 
Q 21.96875 47.46875 24.109375 47.828125 
Q 26.265625 48.1875 28.421875 48.1875 
Q 40.625 48.1875 47.75 41.5 
Q 54.890625 34.8125 54.890625 23.390625 
Q 54.890625 11.625 47.5625 5.09375 
Q 40.234375 -1.421875 26.90625 -1.421875 
Q 22.3125 -1.421875 17.546875 -0.640625 
Q 12.796875 0.140625 7.71875 1.703125 
L 7.71875 11.625 
Q 12.109375 9.234375 16.796875 8.0625 
Q 21.484375 6.890625 26.703125 6.890625 
Q 35.15625 6.890625 40.078125 11.328125 
Q 45.015625 15.765625 45.015625 23.390625 
Q 45.015625 31 40.078125 35.4375 
Q 35.15625 39.890625 26.703125 39.890625 
Q 22.75 39.890625 18.8125 39.015625 
Q 14.890625 38.140625 10.796875 36.28125 
z
" id="BitstreamVeraSans-Roman-35"/>
      </defs>
      <g transform="translate(31.55625 79.996875)scale(0.2 -0.2)">
       <use xlink:href="#BitstreamVeraSans-Roman-35"/>
       <use x="63.623046875" xlink:href="#BitstreamVeraSans-Roman-30"/>
      </g>
     </g>
    </g>
    <g id="ytick_7">
     <g id="line2d_28">
      <g>
       <use style="stroke:#000000;stroke-width:0.5;" x="61.00625" xlink:href="#m281fba61fb" y="16.878125"/>
      </g>
     </g>
     <g id="line2d_29">
      <g>
       <use style="stroke:#000000;stroke-width:0.5;" x="507.40625" xlink:href="#m7b00238918" y="16.878125"/>
      </g>
     </g>
     <g id="text_14">
      <!-- 60 -->
      <g transform="translate(31.55625 22.396875)scale(0.2 -0.2)">
       <use xlink:href="#BitstreamVeraSans-Roman-36"/>
       <use x="63.623046875" xlink:href="#BitstreamVeraSans-Roman-30"/>
      </g>
     </g>
    </g>
    <g id="text_15">
     <!-- counts -->
     <defs>
      <path d="M 48.78125 52.59375 
L 48.78125 44.1875 
Q 44.96875 46.296875 41.140625 47.34375 
Q 37.3125 48.390625 33.40625 48.390625 
Q 24.65625 48.390625 19.8125 42.84375 
Q 14.984375 37.3125 14.984375 27.296875 
Q 14.984375 17.28125 19.8125 11.734375 
Q 24.65625 6.203125 33.40625 6.203125 
Q 37.3125 6.203125 41.140625 7.25 
Q 44.96875 8.296875 48.78125 10.40625 
L 48.78125 2.09375 
Q 45.015625 0.34375 40.984375 -0.53125 
Q 36.96875 -1.421875 32.421875 -1.421875 
Q 20.0625 -1.421875 12.78125 6.34375 
Q 5.515625 14.109375 5.515625 27.296875 
Q 5.515625 40.671875 12.859375 48.328125 
Q 20.21875 56 33.015625 56 
Q 37.15625 56 41.109375 55.140625 
Q 45.0625 54.296875 48.78125 52.59375 
" id="BitstreamVeraSans-Roman-63"/>
     </defs>
     <g transform="translate(22.396875 223.1)rotate(-90.0)scale(0.2 -0.2)">
      <use xlink:href="#BitstreamVeraSans-Roman-63"/>
      <use x="54.98046875" xlink:href="#BitstreamVeraSans-Roman-6f"/>
      <use x="116.162109375" xlink:href="#BitstreamVeraSans-Roman-75"/>
      <use x="179.541015625" xlink:href="#BitstreamVeraSans-Roman-6e"/>
      <use x="242.919921875" xlink:href="#BitstreamVeraSans-Roman-74"/>
      <use x="282.12890625" xlink:href="#BitstreamVeraSans-Roman-73"/>
     </g>
    </g>
   </g>
  </g>
 </g>
 <defs>
  <clipPath id="p4ef7c01ce5">
   <rect height="345.6" width="446.4" x="61.00625" y="16.878125"/>
  </clipPath>
 </defs>
</svg>
