<?xml version="1.0" encoding="utf-8" standalone="no"?>
<!DOCTYPE svg PUBLIC "-//W3C//DTD SVG 1.1//EN"
  "http://www.w3.org/Graphics/SVG/1.1/DTD/svg11.dtd">
<!-- Created with matplotlib (http://matplotlib.org/) -->
<svg height="432pt" version="1.1" viewBox="0 0 576 432" width="576pt" xmlns="http://www.w3.org/2000/svg" xmlns:xlink="http://www.w3.org/1999/xlink">
 <defs>
  <style type="text/css">
*{stroke-linecap:butt;stroke-linejoin:round;stroke-miterlimit:100000;}
  </style>
 </defs>
 <g id="figure_1">
  <g id="patch_1">
   <path d="M 0 432 
L 576 432 
L 576 0 
L 0 0 
z
" style="fill:#ffffff;"/>
  </g>
  <g id="axes_1">
   <g id="patch_2">
    <path d="M 72 388.8 
L 518.4 388.8 
L 518.4 43.2 
L 72 43.2 
z
" style="fill:#ffffff;"/>
   </g>
   <g id="line2d_1">
    <path clip-path="url(#pbd75f2347e)" d="M 71.775031 343.567874 
L 72.370231 343.567874 
L 72.965431 340.830733 
L 73.560631 336.849416 
L 74.751031 326.149643 
L 75.346231 321.670645 
L 75.941431 318.18701 
L 76.536631 316.694019 
L 77.131831 313.708038 
L 77.727031 313.459198 
L 78.322231 311.966207 
L 78.917431 311.219712 
L 79.512631 309.477881 
L 80.107831 312.463862 
L 80.703031 313.708038 
L 81.298231 316.196364 
L 81.893431 319.92884 
L 82.488631 324.407812 
L 83.083831 327.891448 
L 83.679031 330.628614 
L 84.274231 334.11225 
L 84.86943 336.600576 
L 86.05983 338.093567 
L 86.65503 336.600576 
L 87.25023 333.863435 
L 87.84543 332.121605 
L 88.44063 331.375109 
L 89.03583 329.633279 
L 89.63103 330.379774 
L 90.22623 330.628614 
L 90.82143 330.130933 
L 91.41663 330.628614 
L 92.60703 333.614595 
L 93.20223 332.8681 
L 93.79743 332.61926 
L 94.39263 334.609931 
L 94.98783 336.102921 
L 96.17823 341.577228 
L 96.77343 346.0562 
L 97.96383 349.788676 
L 98.55903 349.788676 
L 100.34463 344.563209 
L 100.93983 341.079548 
L 101.53503 338.342407 
L 102.13023 336.351736 
L 102.72543 333.614595 
L 103.32063 328.886783 
L 103.91583 327.642633 
L 104.51103 323.910157 
L 105.10623 323.163636 
L 105.70143 321.919486 
L 106.29663 321.919486 
L 106.89183 323.661317 
L 107.48703 328.389128 
L 108.08223 331.126269 
L 108.67743 337.595912 
L 109.27263 342.572538 
L 110.46303 351.281666 
L 111.05823 356.009478 
L 111.65343 356.507133 
L 112.24863 354.018807 
L 112.84383 354.267647 
L 113.43903 353.272312 
L 114.03423 344.563209 
L 114.62943 346.0562 
L 115.22463 345.309704 
L 115.81983 329.633279 
L 116.41503 327.393793 
L 117.01023 332.61926 
L 117.60543 328.637943 
L 118.20063 328.886783 
L 119.39103 317.938169 
L 120.581429 335.605241 
L 121.176629 331.872764 
L 121.771829 335.107586 
L 122.367029 333.614595 
L 122.962229 339.088902 
L 123.557429 338.342407 
L 124.152629 338.093567 
L 124.747829 336.600576 
L 125.343029 333.863435 
L 125.938229 329.882119 
L 126.533429 328.886783 
L 127.128629 329.384438 
L 127.723829 331.375109 
L 128.319029 329.882119 
L 128.914229 327.891448 
L 129.509429 326.398457 
L 130.104629 328.637943 
L 130.699829 322.665981 
L 131.295029 318.43585 
L 131.890229 321.17299 
L 132.485429 318.43585 
L 133.080629 316.942859 
L 133.675829 322.168326 
L 134.271029 322.914821 
L 134.866229 322.417141 
L 135.461429 321.670645 
L 136.651829 324.158971 
L 137.247029 323.163636 
L 137.842229 317.689355 
L 138.437429 321.670645 
L 139.032629 322.168326 
L 139.627829 323.661317 
L 140.223029 321.670645 
L 140.818229 324.656652 
L 141.413429 320.426495 
L 142.008629 320.426495 
L 142.603829 327.393793 
L 143.794229 308.482571 
L 144.389429 319.43116 
L 144.984629 319.68 
L 145.579829 321.421831 
L 146.175029 319.43116 
L 146.770229 311.219712 
L 147.365429 316.694019 
L 147.960629 326.398457 
L 148.555829 321.670645 
L 149.151029 323.163636 
L 149.746229 319.43116 
L 150.341429 319.182345 
L 151.531829 317.191674 
L 152.127029 317.689355 
L 152.722229 314.952188 
L 153.317429 315.449843 
L 153.912629 313.459198 
L 154.507829 310.224376 
L 155.103029 312.463862 
L 155.698228 312.961543 
L 156.293428 311.468552 
L 156.888628 307.736076 
L 157.483828 308.731386 
L 158.079028 307.736076 
L 158.674228 306.24306 
L 159.269428 309.726721 
L 159.864628 309.975562 
L 160.459828 307.487236 
L 161.055028 310.970872 
L 162.245428 306.24306 
L 162.840628 300.768778 
L 164.031028 292.806145 
L 164.626228 289.322484 
L 165.221428 282.604026 
L 165.816628 280.1157 
L 166.411828 276.383224 
L 167.007028 274.392579 
L 167.602228 271.904253 
L 168.197428 270.162422 
L 168.792628 266.181105 
L 169.387828 264.4393 
L 169.983028 264.688115 
L 170.578228 267.425281 
L 171.173428 264.19046 
L 171.768628 262.697469 
L 172.363828 263.692805 
L 172.959028 264.4393 
L 173.554228 262.448629 
L 174.149428 258.716153 
L 174.744628 255.979012 
L 176.530228 243.288567 
L 177.125428 237.316605 
L 177.720628 233.584129 
L 179.506228 214.921722 
L 180.101428 211.438086 
L 180.696628 206.959089 
L 181.291828 203.973108 
L 181.887028 200.240632 
L 182.482228 197.503491 
L 183.672628 194.26867 
L 184.267828 191.033848 
L 184.863028 190.038513 
L 185.458228 185.559541 
L 186.648628 179.089925 
L 187.243828 176.352758 
L 187.839028 170.131956 
L 189.624628 159.183342 
L 191.410227 142.760446 
L 192.600627 134.548986 
L 193.195827 127.830516 
L 193.791027 123.351544 
L 194.386227 120.863231 
L 194.981427 117.62841 
L 196.171827 112.402943 
L 196.767027 112.154102 
L 197.362227 108.919294 
L 198.552627 105.684473 
L 199.147827 105.9333 
L 200.338227 99.961338 
L 202.123827 91.003382 
L 202.719027 89.012724 
L 203.314227 85.529075 
L 203.909427 84.78258 
L 204.504627 82.791909 
L 205.099827 79.557113 
L 205.695027 77.815283 
L 206.885427 72.092135 
L 207.480627 68.110844 
L 208.075827 66.120173 
L 208.671027 64.627183 
L 209.266227 61.641202 
L 209.861427 59.650556 
L 210.456627 57.16223 
L 211.051827 55.420399 
L 211.647027 55.91808 
L 212.837427 56.415735 
L 213.432627 56.91339 
L 214.623027 59.650556 
L 215.218227 59.650556 
L 215.813427 60.148211 
L 216.408627 60.148211 
L 217.003827 58.40638 
L 217.599027 57.659911 
L 218.194227 56.66455 
L 218.789427 55.171559 
L 219.384627 54.176249 
L 219.979827 52.932099 
L 220.575027 52.683259 
L 221.170227 53.429754 
L 221.765427 54.673904 
L 222.360627 55.420399 
L 224.146227 63.880713 
L 224.741427 66.369013 
L 225.336627 69.354994 
L 225.931827 70.847985 
L 226.527026 69.852675 
L 227.122226 71.345666 
L 227.717426 70.35033 
L 228.312626 72.092135 
L 228.907826 70.35033 
L 229.503026 71.096825 
L 230.098226 71.594506 
L 230.693426 70.599145 
L 231.288626 68.110844 
L 231.883826 68.110844 
L 232.479026 67.115509 
L 233.074226 68.359685 
L 233.669426 69.106154 
L 234.859826 71.843321 
L 235.455026 72.092135 
L 236.050226 70.847985 
L 236.645426 71.096825 
L 237.240626 72.340975 
L 237.835826 72.092135 
L 238.431026 71.096825 
L 239.026226 71.594506 
L 239.621426 72.589816 
L 240.216626 73.833966 
L 241.407026 74.829302 
L 242.002226 78.561778 
L 242.597426 81.547759 
L 243.192626 82.543094 
L 243.787826 84.78258 
L 244.383026 88.017401 
L 244.978226 90.256887 
L 246.763826 94.238204 
L 247.359026 94.238204 
L 247.954226 94.487031 
L 248.549426 93.989363 
L 249.144626 93.989363 
L 250.335026 91.25221 
L 250.930226 91.003382 
L 252.120626 94.238204 
L 252.715826 95.233526 
L 253.906226 100.956661 
L 254.501426 104.937977 
L 255.096626 105.435645 
L 255.691826 106.679795 
L 256.287026 109.168122 
L 256.882226 109.665789 
L 257.477426 110.661112 
L 258.072626 111.905275 
L 258.667826 115.140083 
L 259.263026 117.62841 
L 259.858226 119.370228 
L 260.453426 122.107381 
L 261.048626 125.83987 
L 261.643825 127.830516 
L 262.239025 128.825851 
L 262.834225 130.070014 
L 263.429425 132.06066 
L 264.024625 133.304823 
L 264.619825 130.816509 
L 265.215025 133.055995 
L 265.810225 133.055995 
L 266.405425 135.295481 
L 267.000625 134.300158 
L 267.595825 136.290804 
L 268.191025 137.037312 
L 268.786225 137.286139 
L 269.381425 138.032634 
L 269.976625 140.023293 
L 270.571825 141.516283 
L 271.167025 143.755769 
L 272.357425 150.474239 
L 272.952625 155.202038 
L 273.547825 157.690364 
L 274.143025 161.920508 
L 274.738225 162.915844 
L 275.333425 167.394815 
L 275.928625 168.14131 
L 276.523825 168.390151 
L 277.119025 169.385461 
L 277.714225 168.638965 
L 278.309425 168.14131 
L 278.904625 167.145975 
L 279.499825 165.901825 
L 280.095025 165.901825 
L 280.690225 166.897134 
L 281.285425 166.897134 
L 281.880625 167.145975 
L 282.475825 169.634301 
L 283.071025 169.634301 
L 283.666225 171.873787 
L 286.642225 189.292018 
L 288.427825 197.752306 
L 289.023025 201.484808 
L 289.618225 203.475453 
L 290.213425 202.728958 
L 290.808625 204.719603 
L 291.403825 204.968444 
L 291.999025 205.963779 
L 293.189425 204.470789 
L 293.784625 204.221948 
L 294.379825 205.217284 
L 295.570225 205.217284 
L 296.165425 204.968444 
L 296.760624 204.470789 
L 297.355824 205.466098 
L 297.951024 203.226613 
L 298.546224 199.742977 
L 299.141424 200.240632 
L 299.736624 199.245296 
L 300.331824 196.010501 
L 300.927024 195.51282 
L 301.522224 196.010501 
L 302.117424 192.775679 
L 302.712624 190.785008 
L 303.307824 190.038513 
L 303.903024 191.780344 
L 305.093424 189.789698 
L 306.283824 190.287353 
L 306.879024 190.038513 
L 307.474224 191.282689 
L 308.069424 193.02452 
L 308.664624 196.010501 
L 309.855024 198.996482 
L 310.450224 200.987127 
L 311.045424 201.733622 
L 311.640624 199.991791 
L 312.235824 200.240632 
L 312.831024 197.503491 
L 314.616624 193.771015 
L 315.211824 194.019829 
L 315.807024 194.766325 
L 316.402224 194.51751 
L 317.592624 198.498801 
L 318.187824 202.231303 
L 318.783024 204.719603 
L 319.378224 206.212594 
L 319.973424 208.452079 
L 320.568624 211.935741 
L 321.163824 213.428732 
L 321.759024 214.175227 
L 322.354224 215.917058 
L 322.949424 219.898374 
L 324.735024 225.123841 
L 325.925424 227.114486 
L 326.520624 228.856317 
L 327.115824 229.105158 
L 327.711024 230.598148 
L 328.306224 231.095803 
L 328.901424 232.339953 
L 329.496624 232.837634 
L 330.091824 235.574774 
L 330.687024 234.579465 
L 331.282224 234.828279 
L 331.877424 234.330624 
L 332.472623 234.828279 
L 333.067823 233.335289 
L 333.663023 233.584129 
L 334.258223 232.091139 
L 334.853423 231.842298 
L 335.448623 229.353972 
L 336.043823 229.105158 
L 336.639023 226.119177 
L 337.234223 226.119177 
L 337.829423 224.128505 
L 338.424623 220.644869 
L 339.019823 219.400694 
L 339.615023 218.903039 
L 340.210223 215.668217 
L 340.805423 214.921722 
L 341.400623 213.428732 
L 341.995823 214.672882 
L 342.591023 212.931077 
L 343.186223 213.926387 
L 343.781423 215.419377 
L 344.376623 217.410048 
L 344.971823 218.405384 
L 345.567023 221.640179 
L 346.162223 222.884355 
L 346.757423 227.612167 
L 347.352623 230.598148 
L 348.543023 237.565446 
L 349.138223 241.049081 
L 349.733423 242.790912 
L 350.328623 243.537408 
L 350.923823 242.044417 
L 351.519023 243.288567 
L 352.114223 240.302586 
L 352.709423 238.560755 
L 353.899823 238.063101 
L 354.495023 237.067765 
L 355.090223 236.57011 
L 355.685423 236.81895 
L 356.280623 237.81426 
L 356.875823 236.81895 
L 357.471023 236.57011 
L 358.066223 236.57011 
L 358.661423 238.311941 
L 359.851823 237.81426 
L 360.447023 237.067765 
L 361.042223 237.316605 
L 361.637423 235.07712 
L 362.827823 234.579465 
L 363.423023 234.579465 
L 364.018223 233.832969 
L 364.613423 232.837634 
L 365.208623 231.593458 
L 365.803823 231.095803 
L 366.399023 230.100467 
L 366.994223 230.349308 
L 367.589422 230.349308 
L 368.184622 232.588793 
L 368.779822 231.095803 
L 369.375022 231.842298 
L 369.970222 231.344643 
L 370.565422 233.086448 
L 371.160622 233.584129 
L 371.755822 232.091139 
L 372.946222 233.086448 
L 374.136622 235.32596 
L 374.731822 235.823615 
L 375.327022 238.560755 
L 375.922222 238.063101 
L 376.517422 238.063101 
L 378.303022 243.537408 
L 378.898222 243.537408 
L 379.493422 245.528053 
L 380.088622 246.025734 
L 380.683822 246.772229 
L 381.279022 248.514034 
L 381.874222 249.50937 
L 382.469422 251.748855 
L 383.064622 252.993031 
L 384.255022 256.476667 
L 384.850222 258.964993 
L 385.445422 260.209143 
L 386.040622 264.19046 
L 386.635822 266.181105 
L 387.231022 270.660103 
L 387.826222 271.406598 
L 388.421422 271.904253 
L 389.016622 272.899588 
L 389.611822 274.392579 
L 390.207022 272.899588 
L 390.802222 272.153093 
L 391.397422 273.397243 
L 391.992622 272.401908 
L 392.587822 272.153093 
L 393.183022 274.392579 
L 393.778222 274.392579 
L 394.373422 275.139074 
L 394.968622 274.641419 
L 395.563822 274.392579 
L 396.159022 273.646084 
L 396.754222 273.646084 
L 397.349422 274.641419 
L 397.944622 274.641419 
L 398.539822 275.139074 
L 399.135022 278.125055 
L 399.730222 277.6274 
L 400.325422 276.880905 
L 401.515822 274.143738 
L 402.111022 271.655412 
L 402.706222 271.157757 
L 403.301421 269.913607 
L 403.896621 271.655412 
L 404.491821 270.660103 
L 405.087021 272.650748 
L 405.682221 273.894898 
L 406.277421 276.383224 
L 406.872621 276.632065 
L 407.467821 277.129719 
L 408.063021 276.13441 
L 408.658221 277.129719 
L 409.253421 275.139074 
L 409.848621 272.153093 
L 411.039021 268.918272 
L 412.229421 263.443965 
L 412.824621 261.702134 
L 413.419821 262.448629 
L 414.610221 259.711488 
L 415.205421 259.213834 
L 415.800621 261.702134 
L 416.395821 262.697469 
L 416.991021 262.94631 
L 417.586221 264.688115 
L 418.181421 268.171776 
L 418.776621 267.922936 
L 419.371821 270.162422 
L 419.967021 270.908917 
L 420.562221 274.143738 
L 421.157421 273.148403 
L 421.752621 273.397243 
L 422.347821 272.899588 
L 422.943021 274.641419 
L 423.538221 274.143738 
L 424.133421 273.894898 
L 424.728621 274.641419 
L 425.323821 276.383224 
L 425.919021 274.641419 
L 427.109421 272.650748 
L 427.704621 272.153093 
L 428.299821 270.411262 
L 428.895021 271.406598 
L 430.085421 272.401908 
L 430.680621 271.157757 
L 431.275821 271.406598 
L 431.871021 271.406598 
L 432.466221 270.908917 
L 433.061421 269.913607 
L 433.656621 267.674122 
L 434.847021 266.181105 
L 435.442221 262.199814 
L 436.037421 261.453319 
L 436.632621 259.462648 
L 437.227821 260.209143 
L 437.823021 259.213834 
L 438.41822 259.462648 
L 439.60862 258.964993 
L 440.79902 256.227827 
L 441.39422 256.227827 
L 441.98942 259.213834 
L 442.58462 261.453319 
L 443.17982 264.936955 
L 444.96542 276.880905 
L 445.56062 276.383224 
L 446.15582 278.62271 
L 446.75102 279.369205 
L 447.34622 279.866886 
L 447.94142 279.866886 
L 448.53662 279.618046 
L 449.13182 278.62271 
L 450.32222 278.62271 
L 450.91742 277.37856 
L 451.51262 278.87155 
L 452.10782 278.125055 
L 452.70302 277.6274 
L 453.89342 280.613381 
L 454.48862 280.613381 
L 455.67902 284.843512 
L 456.27422 288.327174 
L 456.86942 289.820164 
L 457.46462 291.81081 
L 458.65502 292.30849 
L 459.25022 289.820164 
L 459.84542 290.815474 
L 460.44062 288.327174 
L 461.03582 288.327174 
L 461.63102 286.585343 
L 462.22622 287.082998 
L 462.82142 287.331838 
L 463.41662 287.331838 
L 464.60702 284.097017 
L 465.20222 283.350522 
L 465.79742 284.594698 
L 466.39262 282.355186 
L 466.98782 282.355186 
L 467.58302 281.857531 
L 468.17822 280.613381 
L 468.77342 281.111036 
L 469.36862 280.613381 
L 469.96382 278.87155 
L 470.55902 278.62271 
L 471.15422 277.6274 
L 471.74942 276.13441 
L 472.34462 276.880905 
L 472.93982 277.129719 
L 473.535019 277.129719 
L 474.130219 276.632065 
L 475.320619 278.125055 
L 475.915819 276.880905 
L 476.511019 276.383224 
L 477.106219 274.641419 
L 477.701419 274.392579 
L 478.296619 271.406598 
L 479.487019 268.669431 
L 480.082219 269.415927 
L 480.677419 268.171776 
L 481.272619 267.922936 
L 481.867819 267.922936 
L 482.463019 272.153093 
L 483.058219 272.899588 
L 483.653419 273.894898 
L 484.248619 275.139074 
L 484.843819 278.373895 
L 486.034219 279.866886 
L 486.629419 280.862196 
L 487.224619 281.111036 
L 487.819819 279.866886 
L 488.415019 279.618046 
L 489.010219 277.37856 
L 489.605419 277.129719 
L 490.200619 273.894898 
L 490.795819 271.655412 
L 491.391019 268.918272 
L 491.986219 269.167112 
L 492.581419 267.674122 
L 493.176619 267.674122 
L 493.771819 267.425281 
L 494.367019 269.167112 
L 494.962219 269.167112 
L 495.557419 269.664767 
L 496.747819 268.669431 
L 497.343019 266.678786 
L 497.938219 265.932291 
L 498.533419 262.94631 
L 499.128619 263.443965 
L 499.723819 261.702134 
L 500.319019 262.697469 
L 500.914219 261.702134 
L 501.509419 264.688115 
L 502.104619 262.697469 
L 502.699819 262.448629 
L 503.295019 261.453319 
L 503.890219 262.94631 
L 504.485419 261.453319 
L 505.080619 264.19046 
L 505.675819 263.692805 
L 506.271019 265.932291 
L 506.866219 264.936955 
L 507.461419 266.678786 
L 508.056619 265.43461 
L 508.651819 268.171776 
L 509.247018 268.420617 
L 511.032618 274.641419 
L 511.627818 275.885569 
L 512.223018 275.636729 
L 512.818218 276.383224 
L 513.413418 279.618046 
L 514.008618 279.866886 
L 514.603818 281.857531 
L 515.199018 282.852867 
L 515.794218 284.594698 
L 516.389418 283.848202 
L 516.984618 285.838848 
L 517.579818 285.590007 
L 518.175018 285.838848 
L 518.770218 284.345857 
L 518.770218 284.345857 
" style="fill:none;stroke:#808080;stroke-linecap:square;"/>
   </g>
   <g id="line2d_2">
    <path clip-path="url(#pbd75f2347e)" d="M 71.775031 319.526036 
L 76.536631 319.557058 
L 79.512631 319.505174 
L 93.79743 319.664765 
L 96.17823 319.633281 
L 98.55903 319.566276 
L 109.27263 319.680379 
L 112.24863 319.676057 
L 113.43903 319.799411 
L 114.62943 319.74904 
L 115.81983 319.878606 
L 117.01023 319.879694 
L 118.20063 319.972053 
L 118.79583 320.13271 
L 122.367029 320.349863 
L 124.152629 320.246307 
L 125.343029 320.31022 
L 127.128629 320.135006 
L 130.699829 319.991992 
L 131.890229 319.927796 
L 134.271029 319.958674 
L 137.247029 320.052403 
L 143.199029 320.126513 
L 144.389429 320.168003 
L 145.579829 320.210569 
L 150.341429 319.730045 
L 152.722229 318.95857 
L 154.507829 317.97679 
L 155.698228 317.016526 
L 156.888628 315.66247 
L 158.079028 313.906632 
L 159.269428 311.580039 
L 161.055028 307.283724 
L 162.245428 303.893184 
L 164.031028 298.070781 
L 165.816628 291.227715 
L 167.602228 283.576436 
L 170.578228 269.478444 
L 175.339828 245.287703 
L 178.315828 229.140168 
L 181.291828 211.340025 
L 184.267828 192.20111 
L 189.029428 159.685276 
L 192.600627 135.753436 
L 194.981427 121.121165 
L 197.362227 107.914822 
L 199.147827 98.907109 
L 200.933427 90.833419 
L 202.719027 83.686655 
L 204.504627 77.491975 
L 206.290227 72.178688 
L 208.075827 67.704944 
L 209.861427 63.974504 
L 211.647027 60.823817 
L 212.837427 59.088909 
L 214.027827 57.696206 
L 215.218227 56.615891 
L 216.408627 55.864847 
L 217.599027 55.368233 
L 218.789427 55.120702 
L 219.979827 55.127931 
L 221.170227 55.392962 
L 222.360627 55.860824 
L 223.551027 56.554763 
L 225.336627 57.925459 
L 227.122226 59.6194 
L 228.312626 60.92219 
L 230.693426 63.963201 
L 233.074226 67.273533 
L 235.455026 71.081055 
L 238.431026 76.456052 
L 242.597426 84.4893 
L 246.168626 92.006053 
L 257.477426 115.986396 
L 261.643825 124.305878 
L 272.952625 146.343024 
L 278.904625 156.844924 
L 282.475825 162.63509 
L 291.403825 176.311124 
L 298.546224 186.26058 
L 302.117424 190.709835 
L 312.235824 202.541968 
L 323.544624 214.324203 
L 328.901424 219.140236 
L 336.639023 225.887736 
L 342.591023 230.711715 
L 344.971823 232.396964 
L 359.851823 242.398213 
L 363.423023 244.651683 
L 368.184622 247.030792 
L 374.136622 250.04559 
L 376.517422 251.351824 
L 381.279022 253.766325 
L 400.325422 262.028928 
L 402.706222 262.78388 
L 405.682221 263.830104 
L 415.205421 267.4401 
L 422.347821 269.632667 
L 428.299821 271.592677 
L 433.061421 272.999235 
L 437.823021 274.362014 
L 442.58462 275.52293 
L 446.15582 276.796055 
L 449.13182 277.513123 
L 454.48862 278.756093 
L 457.46462 279.578359 
L 461.63102 280.430866 
L 467.58302 281.931369 
L 480.082219 284.265235 
L 481.867819 284.756995 
L 484.248619 285.363518 
L 488.415019 286.096029 
L 491.391019 286.43902 
L 493.771819 286.703928 
L 499.723819 287.781894 
L 502.699819 288.506419 
L 508.651819 289.842605 
L 511.032618 290.124682 
L 516.389418 290.67987 
L 518.770218 291.126352 
L 518.770218 291.126352 
" style="fill:none;stroke:#000000;stroke-linecap:square;"/>
   </g>
   <g id="line2d_3">
    <path clip-path="url(#pbd75f2347e)" d="M 71.775031 319.674941 
L 90.22623 319.450187 
L 101.53503 319.624848 
L 106.29663 319.701987 
L 111.05823 319.801728 
L 121.771829 319.720059 
L 124.152629 319.750439 
L 127.723829 319.662012 
L 129.509429 319.564896 
L 132.485429 319.586396 
L 133.675829 319.729712 
L 134.866229 319.729179 
L 136.056629 319.87902 
L 137.842229 319.96786 
L 139.627829 320.207271 
L 140.818229 320.174648 
L 142.603829 320.273999 
L 143.794229 320.154851 
L 146.175029 320.169962 
L 158.674228 319.737937 
L 160.459828 319.585532 
L 164.626228 319.66448 
L 167.602228 319.630991 
L 171.173428 319.08347 
L 172.959028 318.560325 
L 174.149428 318.01185 
L 175.339828 317.236677 
L 176.530228 316.124319 
L 177.720628 314.611434 
L 178.911028 312.593563 
L 180.101428 310.10731 
L 181.291828 307.147302 
L 182.482228 303.75378 
L 184.267828 297.793523 
L 186.053428 290.877817 
L 188.434228 280.55509 
L 192.005427 263.824443 
L 195.576627 247.295302 
L 198.552627 234.745508 
L 200.933427 225.607498 
L 203.314227 217.462879 
L 205.695027 210.255097 
L 207.480627 205.486475 
L 209.266227 201.217897 
L 211.051827 197.458786 
L 212.837427 194.187943 
L 214.623027 191.428899 
L 216.408627 189.10387 
L 218.194227 187.113859 
L 219.979827 185.535403 
L 221.765427 184.379703 
L 223.551027 183.580632 
L 224.741427 183.289328 
L 226.527026 183.124848 
L 228.312626 183.265825 
L 230.693426 183.767538 
L 233.074226 184.479046 
L 234.859826 185.280634 
L 236.050226 185.960213 
L 238.431026 187.707701 
L 241.407026 190.299282 
L 244.978226 193.781777 
L 250.335026 199.199302 
L 269.381425 220.135412 
L 271.762225 222.721184 
L 275.928625 226.822344 
L 283.071025 233.592358 
L 287.832625 237.769607 
L 296.165425 244.545094 
L 299.141424 246.827244 
L 303.903024 250.025356 
L 314.021424 256.687701 
L 323.544624 262.153883 
L 330.687024 265.696245 
L 342.591023 271.308531 
L 346.162223 272.820223 
L 355.685423 276.627824 
L 364.613423 279.574684 
L 379.493422 283.848018 
L 383.659822 285.068528 
L 387.231022 285.859106 
L 390.802222 286.608004 
L 400.325422 288.808994 
L 423.538221 293.332318 
L 439.01342 295.708532 
L 441.98942 296.042134 
L 449.13182 297.287109 
L 452.70302 297.717778 
L 457.46462 298.381943 
L 469.96382 299.96828 
L 475.320619 300.551035 
L 478.296619 300.897229 
L 484.248619 301.532012 
L 491.391019 302.149969 
L 495.557419 302.356234 
L 501.509419 303.105029 
L 504.485419 303.503957 
L 509.247018 303.857808 
L 518.770218 304.513509 
L 518.770218 304.513509 
" style="fill:none;stroke:#0000ff;stroke-linecap:square;"/>
   </g>
   <g id="line2d_4">
    <path clip-path="url(#pbd75f2347e)" d="M 71.775031 319.531095 
L 76.536631 319.650077 
L 80.703031 319.611554 
L 93.20223 319.748542 
L 99.74943 319.654737 
L 106.29663 319.702254 
L 111.65343 319.521261 
L 119.986229 320.158863 
L 130.699829 320.135267 
L 134.271029 319.942836 
L 142.603829 319.550473 
L 144.984629 319.669575 
L 147.960629 319.566569 
L 151.531829 318.953965 
L 152.722229 318.593054 
L 153.912629 318.056491 
L 155.103029 317.303507 
L 156.293428 316.221522 
L 157.483828 314.74037 
L 158.674228 312.755778 
L 159.864628 310.307556 
L 161.055028 307.382244 
L 162.245428 304.022536 
L 164.031028 298.111335 
L 165.816628 291.243 
L 167.602228 283.625445 
L 170.578228 269.926086 
L 175.935028 245.123438 
L 178.911028 232.785426 
L 181.291828 223.872723 
L 183.672628 215.93234 
L 185.458228 210.595871 
L 187.243828 205.807999 
L 189.029428 201.517906 
L 190.815027 197.742331 
L 192.600627 194.449493 
L 194.386227 191.669387 
L 196.171827 189.330143 
L 197.957427 187.324044 
L 199.743027 185.728085 
L 201.528627 184.555551 
L 203.314227 183.738668 
L 204.504627 183.436137 
L 206.290227 183.254641 
L 208.075827 183.384274 
L 210.456627 183.878962 
L 212.837427 184.580966 
L 214.623027 185.368016 
L 215.813427 186.032839 
L 218.194227 187.766042 
L 221.170227 190.347665 
L 224.741427 193.821609 
L 230.098226 199.223525 
L 241.407026 211.48631 
L 244.383026 214.683836 
L 251.525426 222.72912 
L 255.691826 226.832135 
L 262.834225 233.599497 
L 267.000625 237.285646 
L 274.143025 243.074935 
L 279.499825 247.254775 
L 283.666225 250.037797 
L 289.618225 254.142063 
L 292.594225 256.019889 
L 303.307824 262.167359 
L 311.045424 265.995213 
L 323.544624 271.850319 
L 334.853423 276.406414 
L 337.234223 277.268518 
L 341.400623 278.668021 
L 343.781423 279.429227 
L 354.495023 282.421905 
L 364.018223 285.231885 
L 367.589422 285.985045 
L 370.565422 286.621045 
L 380.683822 288.940047 
L 388.421422 290.460648 
L 393.183022 291.515074 
L 406.277421 293.83381 
L 411.634221 294.650401 
L 415.205421 295.270122 
L 419.371821 295.775057 
L 421.752621 296.049746 
L 428.895021 297.300914 
L 432.466221 297.724661 
L 436.632621 298.327301 
L 442.58462 299.050924 
L 446.75102 299.684523 
L 455.08382 300.555586 
L 458.05982 300.906886 
L 474.130219 302.299969 
L 477.701419 302.598569 
L 486.629419 303.712873 
L 490.795819 303.95628 
L 493.176619 304.092075 
L 503.890219 304.999951 
L 510.437418 305.835171 
L 518.770218 306.292842 
L 518.770218 306.292842 
" style="fill:none;stroke:#ff0000;stroke-linecap:square;"/>
   </g>
   <g id="patch_3">
    <path d="M 72 43.2 
L 518.4 43.2 
" style="fill:none;stroke:#000000;stroke-linecap:square;stroke-linejoin:miter;"/>
   </g>
   <g id="patch_4">
    <path d="M 518.4 388.8 
L 518.4 43.2 
" style="fill:none;stroke:#000000;stroke-linecap:square;stroke-linejoin:miter;"/>
   </g>
   <g id="patch_5">
    <path d="M 72 388.8 
L 518.4 388.8 
" style="fill:none;stroke:#000000;stroke-linecap:square;stroke-linejoin:miter;"/>
   </g>
   <g id="patch_6">
    <path d="M 72 388.8 
L 72 43.2 
" style="fill:none;stroke:#000000;stroke-linecap:square;stroke-linejoin:miter;"/>
   </g>
   <g id="matplotlib.axis_1">
    <g id="xtick_1">
     <g id="line2d_5">
      <defs>
       <path d="M 0 0 
L 0 -4 
" id="m179a13e026" style="stroke:#000000;stroke-width:0.5;"/>
      </defs>
      <g>
       <use style="stroke:#000000;stroke-width:0.5;" x="72.0" xlink:href="#m179a13e026" y="388.8"/>
      </g>
     </g>
     <g id="line2d_6">
      <defs>
       <path d="M 0 0 
L 0 4 
" id="mc624e52ed5" style="stroke:#000000;stroke-width:0.5;"/>
      </defs>
      <g>
       <use style="stroke:#000000;stroke-width:0.5;" x="72.0" xlink:href="#mc624e52ed5" y="43.2"/>
      </g>
     </g>
     <g id="text_1">
      <!-- 0 -->
      <defs>
       <path d="M 31.78125 66.40625 
Q 24.171875 66.40625 20.328125 58.90625 
Q 16.5 51.421875 16.5 36.375 
Q 16.5 21.390625 20.328125 13.890625 
Q 24.171875 6.390625 31.78125 6.390625 
Q 39.453125 6.390625 43.28125 13.890625 
Q 47.125 21.390625 47.125 36.375 
Q 47.125 51.421875 43.28125 58.90625 
Q 39.453125 66.40625 31.78125 66.40625 
M 31.78125 74.21875 
Q 44.046875 74.21875 50.515625 64.515625 
Q 56.984375 54.828125 56.984375 36.375 
Q 56.984375 17.96875 50.515625 8.265625 
Q 44.046875 -1.421875 31.78125 -1.421875 
Q 19.53125 -1.421875 13.0625 8.265625 
Q 6.59375 17.96875 6.59375 36.375 
Q 6.59375 54.828125 13.0625 64.515625 
Q 19.53125 74.21875 31.78125 74.21875 
" id="BitstreamVeraSans-Roman-30"/>
      </defs>
      <g transform="translate(65.6375 407.996875)scale(0.2 -0.2)">
       <use xlink:href="#BitstreamVeraSans-Roman-30"/>
      </g>
     </g>
    </g>
    <g id="xtick_2">
     <g id="line2d_7">
      <g>
       <use style="stroke:#000000;stroke-width:0.5;" x="131.52" xlink:href="#m179a13e026" y="388.8"/>
      </g>
     </g>
     <g id="line2d_8">
      <g>
       <use style="stroke:#000000;stroke-width:0.5;" x="131.52" xlink:href="#mc624e52ed5" y="43.2"/>
      </g>
     </g>
     <g id="text_2">
      <!-- 200 -->
      <defs>
       <path d="M 19.1875 8.296875 
L 53.609375 8.296875 
L 53.609375 0 
L 7.328125 0 
L 7.328125 8.296875 
Q 12.9375 14.109375 22.625 23.890625 
Q 32.328125 33.6875 34.8125 36.53125 
Q 39.546875 41.84375 41.421875 45.53125 
Q 43.3125 49.21875 43.3125 52.78125 
Q 43.3125 58.59375 39.234375 62.25 
Q 35.15625 65.921875 28.609375 65.921875 
Q 23.96875 65.921875 18.8125 64.3125 
Q 13.671875 62.703125 7.8125 59.421875 
L 7.8125 69.390625 
Q 13.765625 71.78125 18.9375 73 
Q 24.125 74.21875 28.421875 74.21875 
Q 39.75 74.21875 46.484375 68.546875 
Q 53.21875 62.890625 53.21875 53.421875 
Q 53.21875 48.921875 51.53125 44.890625 
Q 49.859375 40.875 45.40625 35.40625 
Q 44.1875 33.984375 37.640625 27.21875 
Q 31.109375 20.453125 19.1875 8.296875 
" id="BitstreamVeraSans-Roman-32"/>
      </defs>
      <g transform="translate(112.4325 407.996875)scale(0.2 -0.2)">
       <use xlink:href="#BitstreamVeraSans-Roman-32"/>
       <use x="63.623046875" xlink:href="#BitstreamVeraSans-Roman-30"/>
       <use x="127.24609375" xlink:href="#BitstreamVeraSans-Roman-30"/>
      </g>
     </g>
    </g>
    <g id="xtick_3">
     <g id="line2d_9">
      <g>
       <use style="stroke:#000000;stroke-width:0.5;" x="191.04" xlink:href="#m179a13e026" y="388.8"/>
      </g>
     </g>
     <g id="line2d_10">
      <g>
       <use style="stroke:#000000;stroke-width:0.5;" x="191.04" xlink:href="#mc624e52ed5" y="43.2"/>
      </g>
     </g>
     <g id="text_3">
      <!-- 400 -->
      <defs>
       <path d="M 37.796875 64.3125 
L 12.890625 25.390625 
L 37.796875 25.390625 
z
M 35.203125 72.90625 
L 47.609375 72.90625 
L 47.609375 25.390625 
L 58.015625 25.390625 
L 58.015625 17.1875 
L 47.609375 17.1875 
L 47.609375 0 
L 37.796875 0 
L 37.796875 17.1875 
L 4.890625 17.1875 
L 4.890625 26.703125 
z
" id="BitstreamVeraSans-Roman-34"/>
      </defs>
      <g transform="translate(171.9525 407.996875)scale(0.2 -0.2)">
       <use xlink:href="#BitstreamVeraSans-Roman-34"/>
       <use x="63.623046875" xlink:href="#BitstreamVeraSans-Roman-30"/>
       <use x="127.24609375" xlink:href="#BitstreamVeraSans-Roman-30"/>
      </g>
     </g>
    </g>
    <g id="xtick_4">
     <g id="line2d_11">
      <g>
       <use style="stroke:#000000;stroke-width:0.5;" x="250.56" xlink:href="#m179a13e026" y="388.8"/>
      </g>
     </g>
     <g id="line2d_12">
      <g>
       <use style="stroke:#000000;stroke-width:0.5;" x="250.56" xlink:href="#mc624e52ed5" y="43.2"/>
      </g>
     </g>
     <g id="text_4">
      <!-- 600 -->
      <defs>
       <path d="M 33.015625 40.375 
Q 26.375 40.375 22.484375 35.828125 
Q 18.609375 31.296875 18.609375 23.390625 
Q 18.609375 15.53125 22.484375 10.953125 
Q 26.375 6.390625 33.015625 6.390625 
Q 39.65625 6.390625 43.53125 10.953125 
Q 47.40625 15.53125 47.40625 23.390625 
Q 47.40625 31.296875 43.53125 35.828125 
Q 39.65625 40.375 33.015625 40.375 
M 52.59375 71.296875 
L 52.59375 62.3125 
Q 48.875 64.0625 45.09375 64.984375 
Q 41.3125 65.921875 37.59375 65.921875 
Q 27.828125 65.921875 22.671875 59.328125 
Q 17.53125 52.734375 16.796875 39.40625 
Q 19.671875 43.65625 24.015625 45.921875 
Q 28.375 48.1875 33.59375 48.1875 
Q 44.578125 48.1875 50.953125 41.515625 
Q 57.328125 34.859375 57.328125 23.390625 
Q 57.328125 12.15625 50.6875 5.359375 
Q 44.046875 -1.421875 33.015625 -1.421875 
Q 20.359375 -1.421875 13.671875 8.265625 
Q 6.984375 17.96875 6.984375 36.375 
Q 6.984375 53.65625 15.1875 63.9375 
Q 23.390625 74.21875 37.203125 74.21875 
Q 40.921875 74.21875 44.703125 73.484375 
Q 48.484375 72.75 52.59375 71.296875 
" id="BitstreamVeraSans-Roman-36"/>
      </defs>
      <g transform="translate(231.4725 407.996875)scale(0.2 -0.2)">
       <use xlink:href="#BitstreamVeraSans-Roman-36"/>
       <use x="63.623046875" xlink:href="#BitstreamVeraSans-Roman-30"/>
       <use x="127.24609375" xlink:href="#BitstreamVeraSans-Roman-30"/>
      </g>
     </g>
    </g>
    <g id="xtick_5">
     <g id="line2d_13">
      <g>
       <use style="stroke:#000000;stroke-width:0.5;" x="310.08" xlink:href="#m179a13e026" y="388.8"/>
      </g>
     </g>
     <g id="line2d_14">
      <g>
       <use style="stroke:#000000;stroke-width:0.5;" x="310.08" xlink:href="#mc624e52ed5" y="43.2"/>
      </g>
     </g>
     <g id="text_5">
      <!-- 800 -->
      <defs>
       <path d="M 31.78125 34.625 
Q 24.75 34.625 20.71875 30.859375 
Q 16.703125 27.09375 16.703125 20.515625 
Q 16.703125 13.921875 20.71875 10.15625 
Q 24.75 6.390625 31.78125 6.390625 
Q 38.8125 6.390625 42.859375 10.171875 
Q 46.921875 13.96875 46.921875 20.515625 
Q 46.921875 27.09375 42.890625 30.859375 
Q 38.875 34.625 31.78125 34.625 
M 21.921875 38.8125 
Q 15.578125 40.375 12.03125 44.71875 
Q 8.5 49.078125 8.5 55.328125 
Q 8.5 64.0625 14.71875 69.140625 
Q 20.953125 74.21875 31.78125 74.21875 
Q 42.671875 74.21875 48.875 69.140625 
Q 55.078125 64.0625 55.078125 55.328125 
Q 55.078125 49.078125 51.53125 44.71875 
Q 48 40.375 41.703125 38.8125 
Q 48.828125 37.15625 52.796875 32.3125 
Q 56.78125 27.484375 56.78125 20.515625 
Q 56.78125 9.90625 50.3125 4.234375 
Q 43.84375 -1.421875 31.78125 -1.421875 
Q 19.734375 -1.421875 13.25 4.234375 
Q 6.78125 9.90625 6.78125 20.515625 
Q 6.78125 27.484375 10.78125 32.3125 
Q 14.796875 37.15625 21.921875 38.8125 
M 18.3125 54.390625 
Q 18.3125 48.734375 21.84375 45.5625 
Q 25.390625 42.390625 31.78125 42.390625 
Q 38.140625 42.390625 41.71875 45.5625 
Q 45.3125 48.734375 45.3125 54.390625 
Q 45.3125 60.0625 41.71875 63.234375 
Q 38.140625 66.40625 31.78125 66.40625 
Q 25.390625 66.40625 21.84375 63.234375 
Q 18.3125 60.0625 18.3125 54.390625 
" id="BitstreamVeraSans-Roman-38"/>
      </defs>
      <g transform="translate(290.9925 407.996875)scale(0.2 -0.2)">
       <use xlink:href="#BitstreamVeraSans-Roman-38"/>
       <use x="63.623046875" xlink:href="#BitstreamVeraSans-Roman-30"/>
       <use x="127.24609375" xlink:href="#BitstreamVeraSans-Roman-30"/>
      </g>
     </g>
    </g>
    <g id="xtick_6">
     <g id="line2d_15">
      <g>
       <use style="stroke:#000000;stroke-width:0.5;" x="369.6" xlink:href="#m179a13e026" y="388.8"/>
      </g>
     </g>
     <g id="line2d_16">
      <g>
       <use style="stroke:#000000;stroke-width:0.5;" x="369.6" xlink:href="#mc624e52ed5" y="43.2"/>
      </g>
     </g>
     <g id="text_6">
      <!-- 1000 -->
      <defs>
       <path d="M 12.40625 8.296875 
L 28.515625 8.296875 
L 28.515625 63.921875 
L 10.984375 60.40625 
L 10.984375 69.390625 
L 28.421875 72.90625 
L 38.28125 72.90625 
L 38.28125 8.296875 
L 54.390625 8.296875 
L 54.390625 0 
L 12.40625 0 
z
" id="BitstreamVeraSans-Roman-31"/>
      </defs>
      <g transform="translate(344.15 407.996875)scale(0.2 -0.2)">
       <use xlink:href="#BitstreamVeraSans-Roman-31"/>
       <use x="63.623046875" xlink:href="#BitstreamVeraSans-Roman-30"/>
       <use x="127.24609375" xlink:href="#BitstreamVeraSans-Roman-30"/>
       <use x="190.869140625" xlink:href="#BitstreamVeraSans-Roman-30"/>
      </g>
     </g>
    </g>
    <g id="xtick_7">
     <g id="line2d_17">
      <g>
       <use style="stroke:#000000;stroke-width:0.5;" x="429.12" xlink:href="#m179a13e026" y="388.8"/>
      </g>
     </g>
     <g id="line2d_18">
      <g>
       <use style="stroke:#000000;stroke-width:0.5;" x="429.12" xlink:href="#mc624e52ed5" y="43.2"/>
      </g>
     </g>
     <g id="text_7">
      <!-- 1200 -->
      <g transform="translate(403.67 407.996875)scale(0.2 -0.2)">
       <use xlink:href="#BitstreamVeraSans-Roman-31"/>
       <use x="63.623046875" xlink:href="#BitstreamVeraSans-Roman-32"/>
       <use x="127.24609375" xlink:href="#BitstreamVeraSans-Roman-30"/>
       <use x="190.869140625" xlink:href="#BitstreamVeraSans-Roman-30"/>
      </g>
     </g>
    </g>
    <g id="xtick_8">
     <g id="line2d_19">
      <g>
       <use style="stroke:#000000;stroke-width:0.5;" x="488.64" xlink:href="#m179a13e026" y="388.8"/>
      </g>
     </g>
     <g id="line2d_20">
      <g>
       <use style="stroke:#000000;stroke-width:0.5;" x="488.64" xlink:href="#mc624e52ed5" y="43.2"/>
      </g>
     </g>
     <g id="text_8">
      <!-- 1400 -->
      <g transform="translate(463.19 407.996875)scale(0.2 -0.2)">
       <use xlink:href="#BitstreamVeraSans-Roman-31"/>
       <use x="63.623046875" xlink:href="#BitstreamVeraSans-Roman-34"/>
       <use x="127.24609375" xlink:href="#BitstreamVeraSans-Roman-30"/>
       <use x="190.869140625" xlink:href="#BitstreamVeraSans-Roman-30"/>
      </g>
     </g>
    </g>
    <g id="text_9">
     <!-- time (ns) -->
     <defs>
      <path id="BitstreamVeraSans-Roman-20"/>
      <path d="M 54.890625 33.015625 
L 54.890625 0 
L 45.90625 0 
L 45.90625 32.71875 
Q 45.90625 40.484375 42.875 44.328125 
Q 39.84375 48.1875 33.796875 48.1875 
Q 26.515625 48.1875 22.3125 43.546875 
Q 18.109375 38.921875 18.109375 30.90625 
L 18.109375 0 
L 9.078125 0 
L 9.078125 54.6875 
L 18.109375 54.6875 
L 18.109375 46.1875 
Q 21.34375 51.125 25.703125 53.5625 
Q 30.078125 56 35.796875 56 
Q 45.21875 56 50.046875 50.171875 
Q 54.890625 44.34375 54.890625 33.015625 
" id="BitstreamVeraSans-Roman-6e"/>
      <path d="M 52 44.1875 
Q 55.375 50.25 60.0625 53.125 
Q 64.75 56 71.09375 56 
Q 79.640625 56 84.28125 50.015625 
Q 88.921875 44.046875 88.921875 33.015625 
L 88.921875 0 
L 79.890625 0 
L 79.890625 32.71875 
Q 79.890625 40.578125 77.09375 44.375 
Q 74.3125 48.1875 68.609375 48.1875 
Q 61.625 48.1875 57.5625 43.546875 
Q 53.515625 38.921875 53.515625 30.90625 
L 53.515625 0 
L 44.484375 0 
L 44.484375 32.71875 
Q 44.484375 40.625 41.703125 44.40625 
Q 38.921875 48.1875 33.109375 48.1875 
Q 26.21875 48.1875 22.15625 43.53125 
Q 18.109375 38.875 18.109375 30.90625 
L 18.109375 0 
L 9.078125 0 
L 9.078125 54.6875 
L 18.109375 54.6875 
L 18.109375 46.1875 
Q 21.1875 51.21875 25.484375 53.609375 
Q 29.78125 56 35.6875 56 
Q 41.65625 56 45.828125 52.96875 
Q 50 49.953125 52 44.1875 
" id="BitstreamVeraSans-Roman-6d"/>
      <path d="M 8.015625 75.875 
L 15.828125 75.875 
Q 23.140625 64.359375 26.78125 53.3125 
Q 30.421875 42.28125 30.421875 31.390625 
Q 30.421875 20.453125 26.78125 9.375 
Q 23.140625 -1.703125 15.828125 -13.1875 
L 8.015625 -13.1875 
Q 14.5 -2 17.703125 9.0625 
Q 20.90625 20.125 20.90625 31.390625 
Q 20.90625 42.671875 17.703125 53.65625 
Q 14.5 64.65625 8.015625 75.875 
" id="BitstreamVeraSans-Roman-29"/>
      <path d="M 9.421875 54.6875 
L 18.40625 54.6875 
L 18.40625 0 
L 9.421875 0 
z
M 9.421875 75.984375 
L 18.40625 75.984375 
L 18.40625 64.59375 
L 9.421875 64.59375 
z
" id="BitstreamVeraSans-Roman-69"/>
      <path d="M 31 75.875 
Q 24.46875 64.65625 21.28125 53.65625 
Q 18.109375 42.671875 18.109375 31.390625 
Q 18.109375 20.125 21.3125 9.0625 
Q 24.515625 -2 31 -13.1875 
L 23.1875 -13.1875 
Q 15.875 -1.703125 12.234375 9.375 
Q 8.59375 20.453125 8.59375 31.390625 
Q 8.59375 42.28125 12.203125 53.3125 
Q 15.828125 64.359375 23.1875 75.875 
z
" id="BitstreamVeraSans-Roman-28"/>
      <path d="M 56.203125 29.59375 
L 56.203125 25.203125 
L 14.890625 25.203125 
Q 15.484375 15.921875 20.484375 11.0625 
Q 25.484375 6.203125 34.421875 6.203125 
Q 39.59375 6.203125 44.453125 7.46875 
Q 49.3125 8.734375 54.109375 11.28125 
L 54.109375 2.78125 
Q 49.265625 0.734375 44.1875 -0.34375 
Q 39.109375 -1.421875 33.890625 -1.421875 
Q 20.796875 -1.421875 13.15625 6.1875 
Q 5.515625 13.8125 5.515625 26.8125 
Q 5.515625 40.234375 12.765625 48.109375 
Q 20.015625 56 32.328125 56 
Q 43.359375 56 49.78125 48.890625 
Q 56.203125 41.796875 56.203125 29.59375 
M 47.21875 32.234375 
Q 47.125 39.59375 43.09375 43.984375 
Q 39.0625 48.390625 32.421875 48.390625 
Q 24.90625 48.390625 20.390625 44.140625 
Q 15.875 39.890625 15.1875 32.171875 
z
" id="BitstreamVeraSans-Roman-65"/>
      <path d="M 18.3125 70.21875 
L 18.3125 54.6875 
L 36.8125 54.6875 
L 36.8125 47.703125 
L 18.3125 47.703125 
L 18.3125 18.015625 
Q 18.3125 11.328125 20.140625 9.421875 
Q 21.96875 7.515625 27.59375 7.515625 
L 36.8125 7.515625 
L 36.8125 0 
L 27.59375 0 
Q 17.1875 0 13.234375 3.875 
Q 9.28125 7.765625 9.28125 18.015625 
L 9.28125 47.703125 
L 2.6875 47.703125 
L 2.6875 54.6875 
L 9.28125 54.6875 
L 9.28125 70.21875 
z
" id="BitstreamVeraSans-Roman-74"/>
      <path d="M 44.28125 53.078125 
L 44.28125 44.578125 
Q 40.484375 46.53125 36.375 47.5 
Q 32.28125 48.484375 27.875 48.484375 
Q 21.1875 48.484375 17.84375 46.4375 
Q 14.5 44.390625 14.5 40.28125 
Q 14.5 37.15625 16.890625 35.375 
Q 19.28125 33.59375 26.515625 31.984375 
L 29.59375 31.296875 
Q 39.15625 29.25 43.1875 25.515625 
Q 47.21875 21.78125 47.21875 15.09375 
Q 47.21875 7.46875 41.1875 3.015625 
Q 35.15625 -1.421875 24.609375 -1.421875 
Q 20.21875 -1.421875 15.453125 -0.5625 
Q 10.6875 0.296875 5.421875 2 
L 5.421875 11.28125 
Q 10.40625 8.6875 15.234375 7.390625 
Q 20.0625 6.109375 24.8125 6.109375 
Q 31.15625 6.109375 34.5625 8.28125 
Q 37.984375 10.453125 37.984375 14.40625 
Q 37.984375 18.0625 35.515625 20.015625 
Q 33.0625 21.96875 24.703125 23.78125 
L 21.578125 24.515625 
Q 13.234375 26.265625 9.515625 29.90625 
Q 5.8125 33.546875 5.8125 39.890625 
Q 5.8125 47.609375 11.28125 51.796875 
Q 16.75 56 26.8125 56 
Q 31.78125 56 36.171875 55.265625 
Q 40.578125 54.546875 44.28125 53.078125 
" id="BitstreamVeraSans-Roman-73"/>
     </defs>
     <g transform="translate(250.0796875 432.353125)scale(0.2 -0.2)">
      <use xlink:href="#BitstreamVeraSans-Roman-74"/>
      <use x="39.208984375" xlink:href="#BitstreamVeraSans-Roman-69"/>
      <use x="66.9921875" xlink:href="#BitstreamVeraSans-Roman-6d"/>
      <use x="164.404296875" xlink:href="#BitstreamVeraSans-Roman-65"/>
      <use x="225.927734375" xlink:href="#BitstreamVeraSans-Roman-20"/>
      <use x="257.71484375" xlink:href="#BitstreamVeraSans-Roman-28"/>
      <use x="296.728515625" xlink:href="#BitstreamVeraSans-Roman-6e"/>
      <use x="360.107421875" xlink:href="#BitstreamVeraSans-Roman-73"/>
      <use x="412.20703125" xlink:href="#BitstreamVeraSans-Roman-29"/>
     </g>
    </g>
   </g>
   <g id="matplotlib.axis_2">
    <g id="ytick_1">
     <g id="line2d_21">
      <defs>
       <path d="M 0 0 
L 4 0 
" id="m8d834ad2bc" style="stroke:#000000;stroke-width:0.5;"/>
      </defs>
      <g>
       <use style="stroke:#000000;stroke-width:0.5;" x="72.0" xlink:href="#m8d834ad2bc" y="388.8"/>
      </g>
     </g>
     <g id="line2d_22">
      <defs>
       <path d="M 0 0 
L -4 0 
" id="mdb4bf97df1" style="stroke:#000000;stroke-width:0.5;"/>
      </defs>
      <g>
       <use style="stroke:#000000;stroke-width:0.5;" x="518.4" xlink:href="#mdb4bf97df1" y="388.8"/>
      </g>
     </g>
     <g id="text_10">
      <!-- −10 -->
      <defs>
       <path d="M 10.59375 35.5 
L 73.1875 35.5 
L 73.1875 27.203125 
L 10.59375 27.203125 
z
" id="BitstreamVeraSans-Roman-2212"/>
      </defs>
      <g transform="translate(25.790625 394.31875)scale(0.2 -0.2)">
       <use xlink:href="#BitstreamVeraSans-Roman-2212"/>
       <use x="83.7890625" xlink:href="#BitstreamVeraSans-Roman-31"/>
       <use x="147.412109375" xlink:href="#BitstreamVeraSans-Roman-30"/>
      </g>
     </g>
    </g>
    <g id="ytick_2">
     <g id="line2d_23">
      <g>
       <use style="stroke:#000000;stroke-width:0.5;" x="72.0" xlink:href="#m8d834ad2bc" y="319.68"/>
      </g>
     </g>
     <g id="line2d_24">
      <g>
       <use style="stroke:#000000;stroke-width:0.5;" x="518.4" xlink:href="#mdb4bf97df1" y="319.68"/>
      </g>
     </g>
     <g id="text_11">
      <!-- 0 -->
      <g transform="translate(55.275 325.19875)scale(0.2 -0.2)">
       <use xlink:href="#BitstreamVeraSans-Roman-30"/>
      </g>
     </g>
    </g>
    <g id="ytick_3">
     <g id="line2d_25">
      <g>
       <use style="stroke:#000000;stroke-width:0.5;" x="72.0" xlink:href="#m8d834ad2bc" y="250.56"/>
      </g>
     </g>
     <g id="line2d_26">
      <g>
       <use style="stroke:#000000;stroke-width:0.5;" x="518.4" xlink:href="#mdb4bf97df1" y="250.56"/>
      </g>
     </g>
     <g id="text_12">
      <!-- 10 -->
      <g transform="translate(42.55 256.07875)scale(0.2 -0.2)">
       <use xlink:href="#BitstreamVeraSans-Roman-31"/>
       <use x="63.623046875" xlink:href="#BitstreamVeraSans-Roman-30"/>
      </g>
     </g>
    </g>
    <g id="ytick_4">
     <g id="line2d_27">
      <g>
       <use style="stroke:#000000;stroke-width:0.5;" x="72.0" xlink:href="#m8d834ad2bc" y="181.44"/>
      </g>
     </g>
     <g id="line2d_28">
      <g>
       <use style="stroke:#000000;stroke-width:0.5;" x="518.4" xlink:href="#mdb4bf97df1" y="181.44"/>
      </g>
     </g>
     <g id="text_13">
      <!-- 20 -->
      <g transform="translate(42.55 186.95875)scale(0.2 -0.2)">
       <use xlink:href="#BitstreamVeraSans-Roman-32"/>
       <use x="63.623046875" xlink:href="#BitstreamVeraSans-Roman-30"/>
      </g>
     </g>
    </g>
    <g id="ytick_5">
     <g id="line2d_29">
      <g>
       <use style="stroke:#000000;stroke-width:0.5;" x="72.0" xlink:href="#m8d834ad2bc" y="112.32"/>
      </g>
     </g>
     <g id="line2d_30">
      <g>
       <use style="stroke:#000000;stroke-width:0.5;" x="518.4" xlink:href="#mdb4bf97df1" y="112.32"/>
      </g>
     </g>
     <g id="text_14">
      <!-- 30 -->
      <defs>
       <path d="M 40.578125 39.3125 
Q 47.65625 37.796875 51.625 33 
Q 55.609375 28.21875 55.609375 21.1875 
Q 55.609375 10.40625 48.1875 4.484375 
Q 40.765625 -1.421875 27.09375 -1.421875 
Q 22.515625 -1.421875 17.65625 -0.515625 
Q 12.796875 0.390625 7.625 2.203125 
L 7.625 11.71875 
Q 11.71875 9.328125 16.59375 8.109375 
Q 21.484375 6.890625 26.8125 6.890625 
Q 36.078125 6.890625 40.9375 10.546875 
Q 45.796875 14.203125 45.796875 21.1875 
Q 45.796875 27.640625 41.28125 31.265625 
Q 36.765625 34.90625 28.71875 34.90625 
L 20.21875 34.90625 
L 20.21875 43.015625 
L 29.109375 43.015625 
Q 36.375 43.015625 40.234375 45.921875 
Q 44.09375 48.828125 44.09375 54.296875 
Q 44.09375 59.90625 40.109375 62.90625 
Q 36.140625 65.921875 28.71875 65.921875 
Q 24.65625 65.921875 20.015625 65.03125 
Q 15.375 64.15625 9.8125 62.3125 
L 9.8125 71.09375 
Q 15.4375 72.65625 20.34375 73.4375 
Q 25.25 74.21875 29.59375 74.21875 
Q 40.828125 74.21875 47.359375 69.109375 
Q 53.90625 64.015625 53.90625 55.328125 
Q 53.90625 49.265625 50.4375 45.09375 
Q 46.96875 40.921875 40.578125 39.3125 
" id="BitstreamVeraSans-Roman-33"/>
      </defs>
      <g transform="translate(42.55 117.83875)scale(0.2 -0.2)">
       <use xlink:href="#BitstreamVeraSans-Roman-33"/>
       <use x="63.623046875" xlink:href="#BitstreamVeraSans-Roman-30"/>
      </g>
     </g>
    </g>
    <g id="ytick_6">
     <g id="line2d_31">
      <g>
       <use style="stroke:#000000;stroke-width:0.5;" x="72.0" xlink:href="#m8d834ad2bc" y="43.2"/>
      </g>
     </g>
     <g id="line2d_32">
      <g>
       <use style="stroke:#000000;stroke-width:0.5;" x="518.4" xlink:href="#mdb4bf97df1" y="43.2"/>
      </g>
     </g>
     <g id="text_15">
      <!-- 40 -->
      <g transform="translate(42.55 48.71875)scale(0.2 -0.2)">
       <use xlink:href="#BitstreamVeraSans-Roman-34"/>
       <use x="63.623046875" xlink:href="#BitstreamVeraSans-Roman-30"/>
      </g>
     </g>
    </g>
    <g id="text_16">
     <!-- voltage (mV) -->
     <defs>
      <path d="M 30.609375 48.390625 
Q 23.390625 48.390625 19.1875 42.75 
Q 14.984375 37.109375 14.984375 27.296875 
Q 14.984375 17.484375 19.15625 11.84375 
Q 23.34375 6.203125 30.609375 6.203125 
Q 37.796875 6.203125 41.984375 11.859375 
Q 46.1875 17.53125 46.1875 27.296875 
Q 46.1875 37.015625 41.984375 42.703125 
Q 37.796875 48.390625 30.609375 48.390625 
M 30.609375 56 
Q 42.328125 56 49.015625 48.375 
Q 55.71875 40.765625 55.71875 27.296875 
Q 55.71875 13.875 49.015625 6.21875 
Q 42.328125 -1.421875 30.609375 -1.421875 
Q 18.84375 -1.421875 12.171875 6.21875 
Q 5.515625 13.875 5.515625 27.296875 
Q 5.515625 40.765625 12.171875 48.375 
Q 18.84375 56 30.609375 56 
" id="BitstreamVeraSans-Roman-6f"/>
      <path d="M 9.421875 75.984375 
L 18.40625 75.984375 
L 18.40625 0 
L 9.421875 0 
z
" id="BitstreamVeraSans-Roman-6c"/>
      <path d="M 28.609375 0 
L 0.78125 72.90625 
L 11.078125 72.90625 
L 34.1875 11.53125 
L 57.328125 72.90625 
L 67.578125 72.90625 
L 39.796875 0 
z
" id="BitstreamVeraSans-Roman-56"/>
      <path d="M 2.984375 54.6875 
L 12.5 54.6875 
L 29.59375 8.796875 
L 46.6875 54.6875 
L 56.203125 54.6875 
L 35.6875 0 
L 23.484375 0 
z
" id="BitstreamVeraSans-Roman-76"/>
      <path d="M 45.40625 27.984375 
Q 45.40625 37.75 41.375 43.109375 
Q 37.359375 48.484375 30.078125 48.484375 
Q 22.859375 48.484375 18.828125 43.109375 
Q 14.796875 37.75 14.796875 27.984375 
Q 14.796875 18.265625 18.828125 12.890625 
Q 22.859375 7.515625 30.078125 7.515625 
Q 37.359375 7.515625 41.375 12.890625 
Q 45.40625 18.265625 45.40625 27.984375 
M 54.390625 6.78125 
Q 54.390625 -7.171875 48.1875 -13.984375 
Q 42 -20.796875 29.203125 -20.796875 
Q 24.46875 -20.796875 20.265625 -20.09375 
Q 16.0625 -19.390625 12.109375 -17.921875 
L 12.109375 -9.1875 
Q 16.0625 -11.328125 19.921875 -12.34375 
Q 23.78125 -13.375 27.78125 -13.375 
Q 36.625 -13.375 41.015625 -8.765625 
Q 45.40625 -4.15625 45.40625 5.171875 
L 45.40625 9.625 
Q 42.625 4.78125 38.28125 2.390625 
Q 33.9375 0 27.875 0 
Q 17.828125 0 11.671875 7.65625 
Q 5.515625 15.328125 5.515625 27.984375 
Q 5.515625 40.671875 11.671875 48.328125 
Q 17.828125 56 27.875 56 
Q 33.9375 56 38.28125 53.609375 
Q 42.625 51.21875 45.40625 46.390625 
L 45.40625 54.6875 
L 54.390625 54.6875 
z
" id="BitstreamVeraSans-Roman-67"/>
      <path d="M 34.28125 27.484375 
Q 23.390625 27.484375 19.1875 25 
Q 14.984375 22.515625 14.984375 16.5 
Q 14.984375 11.71875 18.140625 8.90625 
Q 21.296875 6.109375 26.703125 6.109375 
Q 34.1875 6.109375 38.703125 11.40625 
Q 43.21875 16.703125 43.21875 25.484375 
L 43.21875 27.484375 
z
M 52.203125 31.203125 
L 52.203125 0 
L 43.21875 0 
L 43.21875 8.296875 
Q 40.140625 3.328125 35.546875 0.953125 
Q 30.953125 -1.421875 24.3125 -1.421875 
Q 15.921875 -1.421875 10.953125 3.296875 
Q 6 8.015625 6 15.921875 
Q 6 25.140625 12.171875 29.828125 
Q 18.359375 34.515625 30.609375 34.515625 
L 43.21875 34.515625 
L 43.21875 35.40625 
Q 43.21875 41.609375 39.140625 45 
Q 35.0625 48.390625 27.6875 48.390625 
Q 23 48.390625 18.546875 47.265625 
Q 14.109375 46.140625 10.015625 43.890625 
L 10.015625 52.203125 
Q 14.9375 54.109375 19.578125 55.046875 
Q 24.21875 56 28.609375 56 
Q 40.484375 56 46.34375 49.84375 
Q 52.203125 43.703125 52.203125 31.203125 
" id="BitstreamVeraSans-Roman-61"/>
     </defs>
     <g transform="translate(16.63125 280.928125)rotate(-90.0)scale(0.2 -0.2)">
      <use xlink:href="#BitstreamVeraSans-Roman-76"/>
      <use x="59.1796875" xlink:href="#BitstreamVeraSans-Roman-6f"/>
      <use x="120.361328125" xlink:href="#BitstreamVeraSans-Roman-6c"/>
      <use x="148.14453125" xlink:href="#BitstreamVeraSans-Roman-74"/>
      <use x="187.353515625" xlink:href="#BitstreamVeraSans-Roman-61"/>
      <use x="248.6328125" xlink:href="#BitstreamVeraSans-Roman-67"/>
      <use x="312.109375" xlink:href="#BitstreamVeraSans-Roman-65"/>
      <use x="373.6328125" xlink:href="#BitstreamVeraSans-Roman-20"/>
      <use x="405.419921875" xlink:href="#BitstreamVeraSans-Roman-28"/>
      <use x="444.43359375" xlink:href="#BitstreamVeraSans-Roman-6d"/>
      <use x="541.845703125" xlink:href="#BitstreamVeraSans-Roman-56"/>
      <use x="610.25390625" xlink:href="#BitstreamVeraSans-Roman-29"/>
     </g>
    </g>
   </g>
  </g>
 </g>
 <defs>
  <clipPath id="pbd75f2347e">
   <rect height="345.6" width="446.4" x="72.0" y="43.2"/>
  </clipPath>
 </defs>
</svg>
